<svg width="472" height="281" viewBox="0 0 472 281" fill="none" xmlns="http://www.w3.org/2000/svg">
<mask id="path-1-outside-1_1250_22" maskUnits="userSpaceOnUse" x="0" y="0" width="472" height="281" fill="black">
<rect fill="white" width="472" height="281"/>
<path d="M34.9598 279C24.9332 279 17.0399 270.151 11.2799 252.454C5.51998 234.757 2.46222 208.724 2.10667 174.356C2.03556 166.918 2 155.889 2 141.269C2 126.394 2.03556 115.237 2.10667 107.799C2.46222 73.9431 5.55553 47.9102 11.3866 29.7C17.2888 11.2333 25.1465 2 34.9598 2C44.773 2 52.6307 11.2333 58.5329 29.7C64.4351 47.9102 67.5284 73.9431 67.8129 107.799C67.9551 122.675 68.0262 133.831 68.0262 141.269C68.0262 148.451 67.9551 159.48 67.8129 174.356C67.4573 208.724 64.3996 234.757 58.6396 252.454C52.8796 270.151 44.9864 279 34.9598 279ZM34.9598 223.6C38.8708 223.6 41.9642 219.368 44.2397 210.904C46.5863 202.44 47.8308 189.488 47.973 172.047C48.1152 157.171 48.1863 146.656 48.1863 140.5C48.1863 133.831 48.1152 123.316 47.973 108.953C47.8308 91.5121 46.5863 78.5597 44.2397 70.0958C41.8931 61.6319 38.7997 57.4 34.9598 57.4C31.1198 57.4 28.0265 61.6319 25.6798 70.0958C23.4043 78.5597 22.1599 91.5121 21.9465 108.953C21.8754 116.134 21.8399 126.65 21.8399 140.5C21.8399 154.094 21.8754 164.609 21.9465 172.047C22.1599 189.488 23.4043 202.44 25.6798 210.904C27.9554 219.368 31.0487 223.6 34.9598 223.6Z"/>
<path d="M111.75 279C101.723 279 93.8657 270.151 88.1769 252.454C82.5592 234.757 79.7503 208.083 79.7503 172.432V15.4653C79.7503 12.644 79.9992 10.3356 80.4969 8.54029C81.0658 6.74491 81.7058 5.84722 82.4169 5.84722H96.1768C96.959 5.84722 97.599 6.74491 98.0968 8.54029C98.6657 10.3356 98.9501 12.644 98.9501 15.4653V172.047C98.9501 188.719 100.017 201.286 102.15 209.75C104.355 217.957 107.519 222.061 111.643 222.061C115.697 222.061 118.826 217.829 121.03 209.365C123.234 200.901 124.337 188.462 124.337 172.047V15.4653C124.337 12.644 124.586 10.3356 125.083 8.54029C125.652 6.74491 126.292 5.84722 127.003 5.84722H140.87C141.652 5.84722 142.292 6.74491 142.79 8.54029C143.288 10.3356 143.536 12.644 143.536 15.4653V172.432C143.536 208.083 140.692 234.757 135.003 252.454C129.385 270.151 121.634 279 111.75 279Z"/>
<path d="M160.348 275.153C159.637 275.153 158.997 274.255 158.428 272.46C157.93 270.408 157.681 268.1 157.681 265.535V15.4653C157.681 12.644 157.93 10.3356 158.428 8.54029C158.997 6.74491 159.637 5.84722 160.348 5.84722H189.361C198.677 5.84722 205.93 13.5417 211.121 28.9306C216.383 44.063 219.014 65.6074 219.014 93.5639C219.014 111.518 217.841 126.778 215.494 139.346C213.148 151.913 209.912 161.531 205.788 168.2L220.401 262.842C220.614 264.381 220.721 265.791 220.721 267.074C220.721 269.125 220.472 271.049 219.974 272.844C219.548 274.383 219.05 275.153 218.481 275.153H204.294C202.232 275.153 200.774 271.69 199.921 264.765L187.761 180.126H176.881V265.535C176.881 268.356 176.597 270.664 176.028 272.46C175.53 274.255 174.89 275.153 174.108 275.153H160.348ZM189.148 125.496C192.419 125.496 194.908 122.675 196.614 117.032C198.321 111.133 199.174 103.054 199.174 92.7944C199.174 82.5352 198.321 74.456 196.614 68.557C194.979 62.4014 192.49 59.3236 189.148 59.3236H176.881V125.496H189.148Z"/>
<path d="M265.252 275.153C264.043 275.153 263.083 273.999 262.372 271.69C261.661 269.125 261.235 266.048 261.092 262.457L249.466 16.6194C249.395 15.85 249.359 14.9523 249.359 13.9264C249.359 11.8745 249.572 10.0792 249.999 8.54029C250.497 6.74491 251.03 5.84722 251.599 5.84722H264.826C266.817 5.84722 267.919 8.66852 268.132 14.3111L275.066 164.353L282.745 75.8667C283.528 68.9417 284.701 65.4792 286.265 65.4792H293.945C295.723 65.4792 296.896 68.9417 297.465 75.8667L305.145 164.353L312.079 14.3111C312.292 8.66852 313.394 5.84722 315.385 5.84722H328.612C329.252 5.84722 329.785 6.74491 330.212 8.54029C330.71 10.0792 330.958 11.8745 330.958 13.9264L330.852 16.6194L319.225 262.457C319.083 266.048 318.621 269.125 317.839 271.69C317.127 273.999 316.203 275.153 315.065 275.153H304.932C303.794 275.153 302.905 274.127 302.265 272.075C301.625 270.023 301.163 267.715 300.879 265.15L290.105 155.119L279.332 265.15C278.692 271.819 277.377 275.153 275.386 275.153H265.252Z"/>
<path d="M334.559 275.153C333.99 275.153 333.457 274.383 332.959 272.844C332.533 271.049 332.319 269.125 332.319 267.074C332.319 265.535 332.355 264.381 332.426 263.611L357.492 16.6194C357.706 13.5417 358.168 10.9769 358.879 8.925C359.59 6.87315 360.515 5.84722 361.652 5.84722H377.439C378.577 5.84722 379.501 6.87315 380.212 8.925C380.923 10.9769 381.386 13.5417 381.599 16.6194L406.559 263.611L406.772 267.074C406.772 269.125 406.523 271.049 406.025 272.844C405.599 274.383 405.065 275.153 404.425 275.153H391.306C389.599 275.153 388.461 272.46 387.892 267.074L383.732 227.832H355.252L351.199 267.074C350.63 272.46 349.457 275.153 347.679 275.153H334.559ZM379.466 172.432L369.546 70.8653L359.626 172.432H379.466Z"/>
<path d="M428.4 275.153C427.689 275.153 427.049 274.255 426.48 272.46C425.983 270.408 425.734 268.1 425.734 265.535V182.819L400.987 18.1583C400.774 15.85 400.667 14.4394 400.667 13.9264C400.667 11.8745 400.88 10.0792 401.307 8.54029C401.805 6.74491 402.374 5.84722 403.014 5.84722H416.347C417.769 5.84722 419.014 8.54028 420.08 13.9264L435.334 113.185L450.693 13.9264C451.547 8.54028 452.791 5.84722 454.427 5.84722H467.76C468.4 5.84722 468.933 6.74491 469.36 8.54029C469.787 10.0792 470 11.8745 470 13.9264C470 15.2088 469.929 16.6194 469.787 18.1583L445.04 182.819V265.535C445.04 268.356 444.756 270.664 444.187 272.46C443.689 274.255 443.049 275.153 442.267 275.153H428.4Z"/>
</mask>
<path d="M34.9598 279C24.9332 279 17.0399 270.151 11.2799 252.454C5.51998 234.757 2.46222 208.724 2.10667 174.356C2.03556 166.918 2 155.889 2 141.269C2 126.394 2.03556 115.237 2.10667 107.799C2.46222 73.9431 5.55553 47.9102 11.3866 29.7C17.2888 11.2333 25.1465 2 34.9598 2C44.773 2 52.6307 11.2333 58.5329 29.7C64.4351 47.9102 67.5284 73.9431 67.8129 107.799C67.9551 122.675 68.0262 133.831 68.0262 141.269C68.0262 148.451 67.9551 159.48 67.8129 174.356C67.4573 208.724 64.3996 234.757 58.6396 252.454C52.8796 270.151 44.9864 279 34.9598 279ZM34.9598 223.6C38.8708 223.6 41.9642 219.368 44.2397 210.904C46.5863 202.44 47.8308 189.488 47.973 172.047C48.1152 157.171 48.1863 146.656 48.1863 140.5C48.1863 133.831 48.1152 123.316 47.973 108.953C47.8308 91.5121 46.5863 78.5597 44.2397 70.0958C41.8931 61.6319 38.7997 57.4 34.9598 57.4C31.1198 57.4 28.0265 61.6319 25.6798 70.0958C23.4043 78.5597 22.1599 91.5121 21.9465 108.953C21.8754 116.134 21.8399 126.65 21.8399 140.5C21.8399 154.094 21.8754 164.609 21.9465 172.047C22.1599 189.488 23.4043 202.44 25.6798 210.904C27.9554 219.368 31.0487 223.6 34.9598 223.6Z" fill="white"/>
<path d="M111.75 279C101.723 279 93.8657 270.151 88.1769 252.454C82.5592 234.757 79.7503 208.083 79.7503 172.432V15.4653C79.7503 12.644 79.9992 10.3356 80.4969 8.54029C81.0658 6.74491 81.7058 5.84722 82.4169 5.84722H96.1768C96.959 5.84722 97.599 6.74491 98.0968 8.54029C98.6657 10.3356 98.9501 12.644 98.9501 15.4653V172.047C98.9501 188.719 100.017 201.286 102.15 209.75C104.355 217.957 107.519 222.061 111.643 222.061C115.697 222.061 118.826 217.829 121.03 209.365C123.234 200.901 124.337 188.462 124.337 172.047V15.4653C124.337 12.644 124.586 10.3356 125.083 8.54029C125.652 6.74491 126.292 5.84722 127.003 5.84722H140.87C141.652 5.84722 142.292 6.74491 142.79 8.54029C143.288 10.3356 143.536 12.644 143.536 15.4653V172.432C143.536 208.083 140.692 234.757 135.003 252.454C129.385 270.151 121.634 279 111.75 279Z" fill="white"/>
<path d="M160.348 275.153C159.637 275.153 158.997 274.255 158.428 272.46C157.93 270.408 157.681 268.1 157.681 265.535V15.4653C157.681 12.644 157.93 10.3356 158.428 8.54029C158.997 6.74491 159.637 5.84722 160.348 5.84722H189.361C198.677 5.84722 205.93 13.5417 211.121 28.9306C216.383 44.063 219.014 65.6074 219.014 93.5639C219.014 111.518 217.841 126.778 215.494 139.346C213.148 151.913 209.912 161.531 205.788 168.2L220.401 262.842C220.614 264.381 220.721 265.791 220.721 267.074C220.721 269.125 220.472 271.049 219.974 272.844C219.548 274.383 219.05 275.153 218.481 275.153H204.294C202.232 275.153 200.774 271.69 199.921 264.765L187.761 180.126H176.881V265.535C176.881 268.356 176.597 270.664 176.028 272.46C175.53 274.255 174.89 275.153 174.108 275.153H160.348ZM189.148 125.496C192.419 125.496 194.908 122.675 196.614 117.032C198.321 111.133 199.174 103.054 199.174 92.7944C199.174 82.5352 198.321 74.456 196.614 68.557C194.979 62.4014 192.49 59.3236 189.148 59.3236H176.881V125.496H189.148Z" fill="white"/>
<path d="M265.252 275.153C264.043 275.153 263.083 273.999 262.372 271.69C261.661 269.125 261.235 266.048 261.092 262.457L249.466 16.6194C249.395 15.85 249.359 14.9523 249.359 13.9264C249.359 11.8745 249.572 10.0792 249.999 8.54029C250.497 6.74491 251.03 5.84722 251.599 5.84722H264.826C266.817 5.84722 267.919 8.66852 268.132 14.3111L275.066 164.353L282.745 75.8667C283.528 68.9417 284.701 65.4792 286.265 65.4792H293.945C295.723 65.4792 296.896 68.9417 297.465 75.8667L305.145 164.353L312.079 14.3111C312.292 8.66852 313.394 5.84722 315.385 5.84722H328.612C329.252 5.84722 329.785 6.74491 330.212 8.54029C330.71 10.0792 330.958 11.8745 330.958 13.9264L330.852 16.6194L319.225 262.457C319.083 266.048 318.621 269.125 317.839 271.69C317.127 273.999 316.203 275.153 315.065 275.153H304.932C303.794 275.153 302.905 274.127 302.265 272.075C301.625 270.023 301.163 267.715 300.879 265.15L290.105 155.119L279.332 265.15C278.692 271.819 277.377 275.153 275.386 275.153H265.252Z" fill="white"/>
<path d="M334.559 275.153C333.99 275.153 333.457 274.383 332.959 272.844C332.533 271.049 332.319 269.125 332.319 267.074C332.319 265.535 332.355 264.381 332.426 263.611L357.492 16.6194C357.706 13.5417 358.168 10.9769 358.879 8.925C359.59 6.87315 360.515 5.84722 361.652 5.84722H377.439C378.577 5.84722 379.501 6.87315 380.212 8.925C380.923 10.9769 381.386 13.5417 381.599 16.6194L406.559 263.611L406.772 267.074C406.772 269.125 406.523 271.049 406.025 272.844C405.599 274.383 405.065 275.153 404.425 275.153H391.306C389.599 275.153 388.461 272.46 387.892 267.074L383.732 227.832H355.252L351.199 267.074C350.63 272.46 349.457 275.153 347.679 275.153H334.559ZM379.466 172.432L369.546 70.8653L359.626 172.432H379.466Z" fill="white"/>
<path d="M428.4 275.153C427.689 275.153 427.049 274.255 426.48 272.46C425.983 270.408 425.734 268.1 425.734 265.535V182.819L400.987 18.1583C400.774 15.85 400.667 14.4394 400.667 13.9264C400.667 11.8745 400.88 10.0792 401.307 8.54029C401.805 6.74491 402.374 5.84722 403.014 5.84722H416.347C417.769 5.84722 419.014 8.54028 420.08 13.9264L435.334 113.185L450.693 13.9264C451.547 8.54028 452.791 5.84722 454.427 5.84722H467.76C468.4 5.84722 468.933 6.74491 469.36 8.54029C469.787 10.0792 470 11.8745 470 13.9264C470 15.2088 469.929 16.6194 469.787 18.1583L445.04 182.819V265.535C445.04 268.356 444.756 270.664 444.187 272.46C443.689 274.255 443.049 275.153 442.267 275.153H428.4Z" fill="white"/>
<path d="M34.9598 279C24.9332 279 17.0399 270.151 11.2799 252.454C5.51998 234.757 2.46222 208.724 2.10667 174.356C2.03556 166.918 2 155.889 2 141.269C2 126.394 2.03556 115.237 2.10667 107.799C2.46222 73.9431 5.55553 47.9102 11.3866 29.7C17.2888 11.2333 25.1465 2 34.9598 2C44.773 2 52.6307 11.2333 58.5329 29.7C64.4351 47.9102 67.5284 73.9431 67.8129 107.799C67.9551 122.675 68.0262 133.831 68.0262 141.269C68.0262 148.451 67.9551 159.48 67.8129 174.356C67.4573 208.724 64.3996 234.757 58.6396 252.454C52.8796 270.151 44.9864 279 34.9598 279ZM34.9598 223.6C38.8708 223.6 41.9642 219.368 44.2397 210.904C46.5863 202.44 47.8308 189.488 47.973 172.047C48.1152 157.171 48.1863 146.656 48.1863 140.5C48.1863 133.831 48.1152 123.316 47.973 108.953C47.8308 91.5121 46.5863 78.5597 44.2397 70.0958C41.8931 61.6319 38.7997 57.4 34.9598 57.4C31.1198 57.4 28.0265 61.6319 25.6798 70.0958C23.4043 78.5597 22.1599 91.5121 21.9465 108.953C21.8754 116.134 21.8399 126.65 21.8399 140.5C21.8399 154.094 21.8754 164.609 21.9465 172.047C22.1599 189.488 23.4043 202.44 25.6798 210.904C27.9554 219.368 31.0487 223.6 34.9598 223.6Z" stroke="black" stroke-width="4" mask="url(#path-1-outside-1_1250_22)"/>
<path d="M111.75 279C101.723 279 93.8657 270.151 88.1769 252.454C82.5592 234.757 79.7503 208.083 79.7503 172.432V15.4653C79.7503 12.644 79.9992 10.3356 80.4969 8.54029C81.0658 6.74491 81.7058 5.84722 82.4169 5.84722H96.1768C96.959 5.84722 97.599 6.74491 98.0968 8.54029C98.6657 10.3356 98.9501 12.644 98.9501 15.4653V172.047C98.9501 188.719 100.017 201.286 102.15 209.75C104.355 217.957 107.519 222.061 111.643 222.061C115.697 222.061 118.826 217.829 121.03 209.365C123.234 200.901 124.337 188.462 124.337 172.047V15.4653C124.337 12.644 124.586 10.3356 125.083 8.54029C125.652 6.74491 126.292 5.84722 127.003 5.84722H140.87C141.652 5.84722 142.292 6.74491 142.79 8.54029C143.288 10.3356 143.536 12.644 143.536 15.4653V172.432C143.536 208.083 140.692 234.757 135.003 252.454C129.385 270.151 121.634 279 111.75 279Z" stroke="black" stroke-width="4" mask="url(#path-1-outside-1_1250_22)"/>
<path d="M160.348 275.153C159.637 275.153 158.997 274.255 158.428 272.46C157.93 270.408 157.681 268.1 157.681 265.535V15.4653C157.681 12.644 157.93 10.3356 158.428 8.54029C158.997 6.74491 159.637 5.84722 160.348 5.84722H189.361C198.677 5.84722 205.93 13.5417 211.121 28.9306C216.383 44.063 219.014 65.6074 219.014 93.5639C219.014 111.518 217.841 126.778 215.494 139.346C213.148 151.913 209.912 161.531 205.788 168.2L220.401 262.842C220.614 264.381 220.721 265.791 220.721 267.074C220.721 269.125 220.472 271.049 219.974 272.844C219.548 274.383 219.05 275.153 218.481 275.153H204.294C202.232 275.153 200.774 271.69 199.921 264.765L187.761 180.126H176.881V265.535C176.881 268.356 176.597 270.664 176.028 272.46C175.53 274.255 174.89 275.153 174.108 275.153H160.348ZM189.148 125.496C192.419 125.496 194.908 122.675 196.614 117.032C198.321 111.133 199.174 103.054 199.174 92.7944C199.174 82.5352 198.321 74.456 196.614 68.557C194.979 62.4014 192.49 59.3236 189.148 59.3236H176.881V125.496H189.148Z" stroke="black" stroke-width="4" mask="url(#path-1-outside-1_1250_22)"/>
<path d="M265.252 275.153C264.043 275.153 263.083 273.999 262.372 271.69C261.661 269.125 261.235 266.048 261.092 262.457L249.466 16.6194C249.395 15.85 249.359 14.9523 249.359 13.9264C249.359 11.8745 249.572 10.0792 249.999 8.54029C250.497 6.74491 251.03 5.84722 251.599 5.84722H264.826C266.817 5.84722 267.919 8.66852 268.132 14.3111L275.066 164.353L282.745 75.8667C283.528 68.9417 284.701 65.4792 286.265 65.4792H293.945C295.723 65.4792 296.896 68.9417 297.465 75.8667L305.145 164.353L312.079 14.3111C312.292 8.66852 313.394 5.84722 315.385 5.84722H328.612C329.252 5.84722 329.785 6.74491 330.212 8.54029C330.71 10.0792 330.958 11.8745 330.958 13.9264L330.852 16.6194L319.225 262.457C319.083 266.048 318.621 269.125 317.839 271.69C317.127 273.999 316.203 275.153 315.065 275.153H304.932C303.794 275.153 302.905 274.127 302.265 272.075C301.625 270.023 301.163 267.715 300.879 265.15L290.105 155.119L279.332 265.15C278.692 271.819 277.377 275.153 275.386 275.153H265.252Z" stroke="black" stroke-width="4" mask="url(#path-1-outside-1_1250_22)"/>
<path d="M334.559 275.153C333.99 275.153 333.457 274.383 332.959 272.844C332.533 271.049 332.319 269.125 332.319 267.074C332.319 265.535 332.355 264.381 332.426 263.611L357.492 16.6194C357.706 13.5417 358.168 10.9769 358.879 8.925C359.59 6.87315 360.515 5.84722 361.652 5.84722H377.439C378.577 5.84722 379.501 6.87315 380.212 8.925C380.923 10.9769 381.386 13.5417 381.599 16.6194L406.559 263.611L406.772 267.074C406.772 269.125 406.523 271.049 406.025 272.844C405.599 274.383 405.065 275.153 404.425 275.153H391.306C389.599 275.153 388.461 272.46 387.892 267.074L383.732 227.832H355.252L351.199 267.074C350.63 272.46 349.457 275.153 347.679 275.153H334.559ZM379.466 172.432L369.546 70.8653L359.626 172.432H379.466Z" stroke="black" stroke-width="4" mask="url(#path-1-outside-1_1250_22)"/>
<path d="M428.4 275.153C427.689 275.153 427.049 274.255 426.48 272.46C425.983 270.408 425.734 268.1 425.734 265.535V182.819L400.987 18.1583C400.774 15.85 400.667 14.4394 400.667 13.9264C400.667 11.8745 400.88 10.0792 401.307 8.54029C401.805 6.74491 402.374 5.84722 403.014 5.84722H416.347C417.769 5.84722 419.014 8.54028 420.08 13.9264L435.334 113.185L450.693 13.9264C451.547 8.54028 452.791 5.84722 454.427 5.84722H467.76C468.4 5.84722 468.933 6.74491 469.36 8.54029C469.787 10.0792 470 11.8745 470 13.9264C470 15.2088 469.929 16.6194 469.787 18.1583L445.04 182.819V265.535C445.04 268.356 444.756 270.664 444.187 272.46C443.689 274.255 443.049 275.153 442.267 275.153H428.4Z" stroke="black" stroke-width="4" mask="url(#path-1-outside-1_1250_22)"/>
</svg>
