<svg width="607" height="277" viewBox="0 0 607 277" fill="none" xmlns="http://www.w3.org/2000/svg">
<path d="M41.2414 14.2347C42.0423 7.30972 43.1901 3.84722 44.6849 3.84722H59.3396C59.9269 3.84722 60.4341 4.87315 60.8612 6.925C61.2883 8.97686 61.5018 11.4134 61.5018 14.2347V262.765C61.5018 265.587 61.2883 268.023 60.8612 270.075C60.4341 272.127 59.9269 273.153 59.3396 273.153H44.8451C44.2578 273.153 43.7506 272.127 43.3235 270.075C42.8964 268.023 42.6829 265.587 42.6829 262.765V143.501L36.837 198.901C36.6769 200.697 36.3031 202.749 35.7159 205.057C35.1286 207.365 34.3812 208.519 33.4736 208.519H28.0282C27.1206 208.519 26.3732 207.365 25.7859 205.057C25.1987 202.749 24.8249 200.697 24.6648 198.901L18.8189 143.501V262.765C18.8189 265.587 18.6054 268.023 18.1783 270.075C17.7512 272.127 17.244 273.153 16.6567 273.153H2.16217C1.57492 273.153 1.06774 272.127 0.640644 270.075C0.213548 268.023 0 265.587 0 262.765V14.2347C0 11.4134 0.213548 8.97686 0.640644 6.925C1.06774 4.87315 1.57492 3.84722 2.16217 3.84722H16.8169C18.3117 3.84722 19.4596 7.30972 20.2604 14.2347L30.7509 106.568L41.2414 14.2347Z" fill="#181818"/>
<path d="M87.2564 260.072C86.5624 268.793 85.3612 273.153 83.6528 273.153H68.5176C68.0371 273.153 67.61 272.383 67.2363 270.844C66.916 269.049 66.7558 266.997 66.7558 264.689L66.8359 262.381L84.2934 16.543C84.507 13.2088 84.9074 10.2593 85.4947 7.69444C86.0819 5.12962 86.8827 3.84722 87.8971 3.84722H110.159C111.174 3.84722 111.975 5.12962 112.562 7.69444C113.149 10.2593 113.55 13.2088 113.763 16.543L131.221 262.381L131.301 264.689C131.301 266.997 131.114 269.049 130.74 270.844C130.42 272.383 130.019 273.153 129.539 273.153H114.404C112.695 273.153 111.494 268.793 110.8 260.072L108.798 233.142H89.2584L87.2564 260.072ZM99.0283 78.0986L93.3425 158.121H104.714L99.0283 78.0986Z" fill="#181818"/>
<path d="M199.898 259.688C200.112 261.226 200.219 262.894 200.219 264.689C200.219 266.997 200.032 269.049 199.658 270.844C199.338 272.383 198.937 273.153 198.457 273.153H177.796C176.568 273.153 175.607 271.101 174.913 266.997L160.979 184.282V262.765C160.979 265.587 160.766 268.023 160.339 270.075C159.912 272.127 159.404 273.153 158.817 273.153H142.321C141.733 273.153 141.226 272.127 140.799 270.075C140.372 268.023 140.158 265.587 140.158 262.765V14.2347C140.158 11.4134 140.372 8.97686 140.799 6.925C141.226 4.87315 141.733 3.84722 142.321 3.84722H158.817C159.404 3.84722 159.912 4.87315 160.339 6.925C160.766 8.97686 160.979 11.4134 160.979 14.2347V86.5625L173.632 10.3875C174.433 6.02731 175.42 3.84722 176.595 3.84722H195.894C196.375 3.84722 196.775 4.74491 197.096 6.54029C197.469 8.07917 197.656 10.0028 197.656 12.3111C197.656 14.363 197.523 16.1583 197.256 17.6972L178.277 128.882L199.898 259.688Z" fill="#181818"/>
<path d="M260.808 198.132C261.396 198.132 261.903 199.158 262.33 201.21C262.757 203.262 262.97 205.698 262.97 208.519V262.765C262.97 265.587 262.757 268.023 262.33 270.075C261.903 272.127 261.396 273.153 260.808 273.153H210.197C209.61 273.153 209.103 272.127 208.676 270.075C208.249 268.023 208.035 265.587 208.035 262.765V14.2347C208.035 11.4134 208.249 8.97686 208.676 6.925C209.103 4.87315 209.61 3.84722 210.197 3.84722H260.008C260.595 3.84722 261.102 4.87315 261.529 6.925C261.956 8.97686 262.17 11.4134 262.17 14.2347V68.4806C262.17 71.3019 261.956 73.7384 261.529 75.7903C261.102 77.8421 260.595 78.8681 260.008 78.8681H228.856V103.106H255.603C256.19 103.106 256.698 104.131 257.125 106.183C257.552 108.235 257.765 110.672 257.765 113.493V163.507C257.765 166.328 257.552 168.765 257.125 170.817C256.698 172.869 256.19 173.894 255.603 173.894H228.856V198.132H260.808Z" fill="#181818"/>
<path d="M400.246 3.84722C400.726 3.84722 401.127 4.74491 401.447 6.54029C401.821 8.07917 402.008 9.87454 402.008 11.9264C402.008 13.4653 401.928 15.0042 401.767 16.543L381.587 176.972V262.765C381.587 265.587 381.374 268.023 380.947 270.075C380.519 272.127 380.012 273.153 379.425 273.153H362.368C361.781 273.153 361.273 272.127 360.846 270.075C360.419 268.023 360.206 265.587 360.206 262.765V176.972L340.106 16.543C339.945 15.0042 339.865 13.5935 339.865 12.3111C339.865 10.0028 340.025 8.07917 340.346 6.54029C340.719 4.74491 341.147 3.84722 341.627 3.84722H358.524C360.019 3.84722 361.113 6.79676 361.807 12.6958L370.856 88.8708L380.146 13.4653C380.947 7.05324 382.068 3.84722 383.509 3.84722H400.246Z" fill="#181818"/>
<path d="M468.764 161.968C468.764 201.21 466.041 230.192 460.595 248.915C455.203 267.638 447.996 277 438.974 277C429.951 277 422.717 267.638 417.272 248.915C411.88 230.192 409.184 200.953 409.184 161.199V115.801C409.184 89.6403 410.465 67.9676 413.028 50.7833C415.643 33.3426 419.194 20.5185 423.678 12.3111C428.163 4.1037 433.261 0 438.974 0C444.686 0 449.758 4.1037 454.189 12.3111C458.673 20.5185 462.224 33.2144 464.84 50.3986C467.456 67.5829 468.764 89.1273 468.764 115.032V161.968ZM430.805 169.278C430.805 179.794 431.526 187.873 432.968 193.515C434.462 199.158 436.464 201.979 438.974 201.979C441.483 201.979 443.458 199.158 444.9 193.515C446.394 187.616 447.142 179.409 447.142 168.893V108.107C447.142 97.5912 446.394 89.512 444.9 83.8695C443.458 77.9704 441.483 75.0208 438.974 75.0208C436.464 75.0208 434.462 77.8421 432.968 83.4847C431.526 89.1273 430.805 97.2065 430.805 107.722V169.278Z" fill="#181818"/>
<path d="M507.011 277C498.042 277 490.915 267.638 485.629 248.915C480.397 230.192 477.781 200.953 477.781 161.199V14.2347C477.781 11.4134 477.995 8.97686 478.422 6.925C478.849 4.87315 479.356 3.84722 479.944 3.84722H496.68C497.268 3.84722 497.775 4.87315 498.202 6.925C498.629 8.97686 498.843 11.4134 498.843 14.2347V167.354C498.843 177.87 499.563 185.949 501.005 191.592C502.5 197.234 504.502 200.056 507.011 200.056C509.52 200.056 511.495 197.234 512.937 191.592C514.432 185.949 515.179 177.87 515.179 167.354V14.2347C515.179 11.4134 515.393 8.97686 515.82 6.925C516.247 4.87315 516.754 3.84722 517.341 3.84722H534.078C534.665 3.84722 535.172 4.87315 535.599 6.925C536.027 8.97686 536.24 11.4134 536.24 14.2347V161.199C536.24 200.953 533.597 230.192 528.312 248.915C523.08 267.638 515.98 277 507.011 277Z" fill="#181818"/>
<path d="M606.84 261.226C606.947 262.252 607 263.406 607 264.689C607 266.997 606.813 269.049 606.439 270.844C606.119 272.383 605.719 273.153 605.238 273.153H587.06C586.313 273.153 585.618 272.255 584.978 270.46C584.391 268.664 583.963 266.356 583.697 263.535L576.649 187.36H569.923V262.765C569.923 265.587 569.709 268.023 569.282 270.075C568.855 272.127 568.348 273.153 567.761 273.153H550.463C549.876 273.153 549.369 272.127 548.942 270.075C548.515 268.023 548.301 265.587 548.301 262.765V14.2347C548.301 11.4134 548.515 8.97686 548.942 6.925C549.369 4.87315 549.876 3.84722 550.463 3.84722H581.615C586.419 3.84722 590.61 7.56621 594.187 15.0042C597.817 22.4421 600.594 33.2144 602.515 47.3208C604.437 61.4273 605.398 77.9704 605.398 96.95C605.398 131.831 602.596 157.095 596.99 172.74L606.84 261.226ZM579.933 116.186C581.107 116.186 582.015 114.391 582.656 110.8C583.296 106.953 583.617 102.208 583.617 96.5653C583.617 90.9227 583.296 86.0495 582.656 81.9458C582.068 77.5857 581.161 75.4056 579.933 75.4056H569.923V116.186H579.933Z" fill="#181818"/>
</svg>
