<svg width="393" height="139" viewBox="0 0 393 139" fill="none" xmlns="http://www.w3.org/2000/svg">
<path d="M0 89.8248V0H4.5688V89.8248H0ZM22.844 89.8248V0H27.4128V89.8248H22.844ZM31.9816 89.8248V0H41.1192V89.8248H31.9816ZM27.1082 139C24.57 139 22.3364 138.442 20.4073 137.325C18.4783 136.107 16.9553 134.483 15.8385 132.453C14.7217 130.424 14.1633 128.089 14.1633 125.45C14.1633 122.913 14.7217 120.629 15.8385 118.599C16.9553 116.569 18.4783 114.945 20.4073 113.727C22.3364 112.611 24.57 112.053 27.1082 112.053C29.1388 112.053 31.0171 112.459 32.7431 113.271C34.3675 114.083 35.7382 115.25 36.855 116.772L33.9614 119.665L33.6568 119.36C33.6568 119.056 33.5553 118.751 33.3522 118.447C33.2507 118.244 32.9969 117.939 32.5908 117.533C31.7785 116.823 30.9155 116.315 30.0018 116.011C28.9865 115.605 27.8697 115.402 26.6513 115.402C25.1284 115.402 23.7578 115.808 22.5394 116.62C21.2195 117.432 20.2042 118.599 19.4935 120.122C18.6813 121.543 18.2752 123.217 18.2752 125.146C18.2752 127.074 18.6813 128.85 19.4935 130.474C20.3058 131.997 21.3718 133.164 22.6917 133.976C24.1131 134.889 25.636 135.346 27.2605 135.346C29.9003 135.346 32.1847 134.28 34.1137 132.149L36.3981 134.889C33.8599 137.63 30.7633 139 27.1082 139Z" fill="white"/>
<path d="M50.2687 89.8248V0H54.8375V89.8248H50.2687ZM63.9751 89.8248V0H68.5439V89.8248H63.9751ZM77.6815 89.8248V0H95.9567V89.8248H77.6815ZM80.2705 111.9C83.0117 111.9 85.2961 112.865 87.1237 114.793L85.2962 117.838L85.1439 118.447L84.687 118.142C84.5854 117.736 84.4839 117.432 84.3824 117.229C84.1793 116.924 83.824 116.62 83.3163 116.315C82.4026 115.706 81.2858 115.402 79.9659 115.402C78.646 115.402 77.3769 115.757 76.1586 116.468C74.9402 117.077 73.9757 118.092 73.265 119.513C72.4528 120.934 72.0466 122.659 72.0466 124.689V138.391H67.9347V112.509H72.1989L72.0466 117.229C72.7573 115.605 73.8742 114.286 75.3971 113.271C76.92 112.357 78.5445 111.9 80.2705 111.9Z" fill="white"/>
<path d="M100.537 89.8248V0H105.106V89.8248H100.537ZM109.675 89.8248V0H118.813V89.8248H109.675ZM127.95 89.8248V0H132.519V89.8248H127.95ZM126.884 139C123.026 139 119.98 137.833 117.747 135.498C115.411 133.164 114.244 129.865 114.244 125.602C114.244 122.76 114.802 120.274 115.919 118.142C116.934 116.112 118.356 114.59 120.183 113.575C121.909 112.459 123.889 111.9 126.123 111.9C129.27 111.9 131.808 112.915 133.737 114.945C135.666 117.077 136.631 120.172 136.631 124.232C136.631 124.638 136.631 125.247 136.631 126.059H118.203C118.305 129.206 119.168 131.591 120.792 133.215C122.417 134.839 124.498 135.651 127.036 135.651C129.778 135.651 132.011 134.686 133.737 132.758L136.022 135.042C133.788 137.681 130.742 139 126.884 139ZM132.519 122.862C132.519 120.426 131.91 118.498 130.691 117.077C129.473 115.656 127.849 114.945 125.818 114.945C123.991 114.945 122.366 115.605 120.945 116.924C119.523 118.244 118.66 120.223 118.356 122.862H132.519Z" fill="white"/>
<path d="M150.806 89.8248V0H155.375V89.8248H150.806ZM164.512 89.8248V0H169.081V89.8248H164.512ZM173.65 89.8248V0H182.788V89.8248H173.65ZM175.63 111.9C179.285 111.9 182.077 112.865 184.006 114.793C185.935 116.721 186.9 120.02 186.9 124.689V138.391H182.483V134.433C180.96 137.478 178.016 139 173.65 139C170.807 139 168.574 138.34 166.949 137.021C165.325 135.701 164.512 133.976 164.512 131.844C164.512 130.018 165.122 128.444 166.34 127.125C167.457 125.805 169.031 124.74 171.061 123.928C172.99 123.217 175.173 122.862 177.61 122.862C179.742 122.862 181.671 122.963 183.397 123.166C183.194 120.325 182.432 118.295 181.112 117.077C179.793 115.859 177.864 115.25 175.325 115.25C174.005 115.25 172.787 115.503 171.67 116.011C170.452 116.518 169.335 117.229 168.32 118.142L166.34 115.554C168.777 113.118 171.873 111.9 175.63 111.9ZM174.107 135.955C176.95 135.955 179.183 135.092 180.808 133.367C182.432 131.743 183.295 129.409 183.397 126.364C181.671 126.059 179.843 125.907 177.914 125.907C175.071 125.907 172.787 126.414 171.061 127.429C169.437 128.343 168.624 129.764 168.624 131.692C168.624 134.534 170.452 135.955 174.107 135.955Z" fill="white"/>
<path d="M201.075 89.8248V0H205.644V89.8248H201.075ZM214.781 89.8248V0H233.056V89.8248H214.781ZM237.625 89.8248V0H242.194V89.8248H237.625ZM237.168 135.955C234.732 137.884 231.99 138.848 228.944 138.848C226.102 138.848 224.071 137.985 222.853 136.26C221.634 134.433 221.025 131.591 221.025 127.734C221.025 127.023 221.076 125.907 221.177 124.384L221.787 115.859H216V112.509H221.939L222.396 105.658L226.812 104.897H227.421V105.202C227.218 105.506 227.066 105.811 226.965 106.115C226.762 106.419 226.66 106.825 226.66 107.333L226.051 112.509H234.579V115.859H225.746L225.289 124.689C225.188 126.211 225.137 127.176 225.137 127.582C225.137 130.627 225.492 132.707 226.203 133.824C226.914 134.839 228.031 135.346 229.554 135.346C230.67 135.346 231.736 135.143 232.752 134.737C233.666 134.331 234.732 133.671 235.95 132.758L237.168 135.955Z" fill="white"/>
<path d="M251.343 89.8248V0H255.912V89.8248H251.343ZM274.187 89.8248V0H283.325V89.8248H274.187ZM287.894 89.8248V0H292.463V89.8248H287.894ZM267.943 135.042H274.644V115.859H268.248V112.509H278.604V135.042H284.696V138.391H267.943V135.042ZM276.472 107.028C275.66 107.028 274.949 106.775 274.34 106.267C273.832 105.658 273.578 104.948 273.578 104.136C273.578 103.324 273.832 102.664 274.34 102.157C274.847 101.548 275.558 101.243 276.472 101.243C277.183 101.243 277.842 101.548 278.452 102.157C279.061 102.766 279.365 103.425 279.365 104.136C279.365 104.948 279.061 105.658 278.452 106.267C277.842 106.775 277.183 107.028 276.472 107.028Z" fill="white"/>
<path d="M301.612 89.8248V0H306.181V89.8248H301.612ZM319.887 89.8248V0H338.163V89.8248H319.887ZM342.731 89.8248V0H347.3V89.8248H342.731ZM326.741 138.848C324.405 138.848 322.324 138.29 320.497 137.173C318.771 136.057 317.4 134.483 316.385 132.453C315.268 130.424 314.709 128.089 314.709 125.45C314.709 122.811 315.268 120.477 316.385 118.447C317.4 116.417 318.771 114.844 320.497 113.727C322.324 112.509 324.405 111.9 326.741 111.9C329.076 111.9 331.106 112.509 332.832 113.727C334.66 114.844 336.081 116.417 337.096 118.447C338.112 120.477 338.619 122.811 338.619 125.45C338.619 128.089 338.112 130.424 337.096 132.453C336.081 134.483 334.66 136.057 332.832 137.173C331.106 138.29 329.076 138.848 326.741 138.848ZM326.741 135.498C328.162 135.498 329.482 135.042 330.7 134.128C331.817 133.316 332.731 132.149 333.441 130.626C334.051 129.003 334.355 127.226 334.355 125.298C334.355 122.355 333.644 119.969 332.223 118.142C330.802 116.315 328.974 115.402 326.741 115.402C324.507 115.402 322.679 116.315 321.258 118.142C319.837 119.969 319.126 122.355 319.126 125.298C319.126 127.226 319.43 129.003 320.04 130.626C320.75 132.149 321.664 133.316 322.781 134.128C323.898 135.042 325.218 135.498 326.741 135.498Z" fill="white"/>
<path d="M351.881 89.8248V0H361.018V89.8248H351.881ZM379.294 89.8248V0H383.862V89.8248H379.294ZM388.431 89.8248V0H393V89.8248H388.431ZM366.958 112.509H370.917V117.077C371.933 115.554 373.202 114.286 374.725 113.271C376.248 112.357 377.872 111.9 379.598 111.9C381.933 111.9 383.812 112.763 385.233 114.488C386.553 116.315 387.213 119.056 387.213 122.71V138.391H383.253V122.862C383.253 120.223 382.847 118.345 382.035 117.229C381.121 116.011 379.954 115.402 378.532 115.402C377.314 115.402 376.146 115.757 375.029 116.468C373.811 117.178 372.796 118.142 371.984 119.36C371.273 120.578 370.917 121.949 370.917 123.471V138.391H366.958V112.509Z" fill="white"/>
</svg>
