<svg width="129" height="193" viewBox="0 0 129 193" fill="none" xmlns="http://www.w3.org/2000/svg">
<path d="M122.342 144.765L122.344 144.762C126.146 135.756 128.054 127.034 128.054 118.6C128.054 109.98 126.45 101.954 123.238 94.525C120.099 87.0704 115.33 80.9499 108.936 76.1719C121.262 64.6513 127.457 51.5285 127.457 36.8172C127.457 28.3429 124.73 20.6727 119.29 13.822L119.285 13.8163C111.99 4.90055 100.076 0.5 83.6779 0.5C67.4373 0.5 54.8471 5.92052 45.9808 16.8019L45.9807 16.8019L45.9768 16.8068C40.549 23.6418 37.8095 30.7128 37.8095 38.0111C37.8095 40.2301 38.0113 42.5461 38.4133 44.9582L38.4173 44.9821L38.4236 45.0056C39.5366 49.1543 41.372 52.317 43.962 54.4408C46.5562 56.568 49.8593 57.6135 53.8303 57.6135C56.0561 57.6135 57.811 57.2624 59.0236 56.4907C60.2745 55.6947 60.8968 54.4836 60.8968 52.9349V52.4693L60.4324 52.4361C57.8509 52.2517 55.6931 50.7873 53.9633 47.9066C52.4212 45.2059 51.644 42.1111 51.644 38.608C51.644 34.9215 52.712 30.716 54.8818 25.9819L54.8819 25.9816C57.5365 20.1808 61.0864 15.8594 65.519 12.9855C69.9512 10.1119 75.2999 8.66343 81.5886 8.66343C91.8062 8.66343 99.0867 12.1896 103.551 19.1744C106.681 24.2619 108.25 30.0385 108.25 36.5187C108.25 48.0222 104.196 58.9615 96.0517 69.3462C90.1048 67.0235 83.4907 65.8663 76.216 65.8663C68.7844 65.8663 62.1374 67.3732 56.2869 70.3994C50.4193 73.4343 47.3608 77.4548 47.3608 82.484C47.3608 84.2039 47.7526 85.7326 48.5525 87.0524C49.3518 88.3713 50.5419 89.4541 52.097 90.3094C55.192 92.0117 59.7704 92.8338 65.7694 92.8338C77.6476 92.8338 88.6518 89.8026 98.7722 83.7422C104.277 91.1553 107.056 101.166 107.056 113.824C107.056 138.567 98.5523 157.917 81.5712 171.938C72.111 179.624 61.1794 183.466 48.7562 183.466C41.1547 183.466 34.8516 182.059 29.8212 179.275C24.7973 176.495 21.0134 172.326 18.4681 166.745L18.4667 166.742C15.9073 161.23 14.633 155.73 14.633 150.238C14.633 144.557 16.1018 138.763 19.0573 132.852L19.0589 132.849C21.8165 127.235 25.2233 123.056 29.2652 120.28C33.3031 117.507 38.0028 116.115 43.3836 116.115C46.5261 116.115 49.3608 116.508 51.8924 117.287L52.6656 117.525L52.5326 116.727C52.1207 114.255 51.0824 112.345 49.383 111.058C47.8797 109.569 45.8602 108.847 43.3836 108.847C27.0923 108.847 14.8879 115.803 6.83738 129.688C2.62118 136.716 0.5 143.767 0.5 150.835C0.5 157.692 2.31594 164.44 5.93295 171.071C13.4123 185.017 27.752 191.928 48.7562 191.928C60.9556 191.928 72.167 189.728 82.3836 185.321C92.5837 180.92 100.805 175.311 107.03 168.484C113.435 161.478 118.54 153.571 122.342 144.765ZM56.6085 78.9162L56.6237 78.8973L56.6369 78.877C59.494 74.4962 64.6673 72.2389 72.3358 72.2389C79.706 72.2389 85.5764 73.5048 89.9852 75.9951C82.4602 82.398 74.7888 85.5657 66.9633 85.5657C63.0022 85.5657 60.0945 85.1675 58.1947 84.4076C57.2491 84.0294 56.5825 83.573 56.1545 83.0594C55.7339 82.5546 55.5242 81.9722 55.5242 81.2901C55.5242 80.6582 55.8438 79.8721 56.6085 78.9162Z" fill="#F3F3F1" stroke="url(#paint0_linear_1250_21)"/>
<defs>
<linearGradient id="paint0_linear_1250_21" x1="64.277" y1="1" x2="64.277" y2="191.428" gradientUnits="userSpaceOnUse">
<stop stop-color="#D54D49"/>
<stop offset="1" stop-color="#F3F3F1"/>
</linearGradient>
</defs>
</svg>
