<svg width="252" height="139" viewBox="0 0 252 139" fill="none" xmlns="http://www.w3.org/2000/svg">
<path d="M1.43305 137.069C1.03498 137.069 0.696623 136.619 0.417974 135.718C0.139325 134.817 0 133.723 0 132.436V6.75695C0 5.3412 0.119421 4.18287 0.358264 3.28195C0.636913 2.38102 0.995176 1.93055 1.43305 1.93055H16.8981C21.7545 1.93055 25.5561 5.59861 28.3028 12.9347C31.0893 20.2708 32.4825 30.6958 32.4825 44.2097C32.4825 53.6051 31.766 61.5204 30.333 67.9556C28.9397 74.262 26.9892 78.831 24.4813 81.6625L33.1991 130.892C33.3185 131.664 33.3782 132.372 33.3782 133.015C33.3782 134.174 33.2389 135.139 32.9602 135.911C32.7214 136.683 32.4427 137.069 32.1243 137.069H26.6906C26.0537 137.069 25.5561 136.619 25.1979 135.718C24.8794 134.817 24.5808 133.53 24.3022 131.857L16.5995 86.1028H8.29977V132.436C8.29977 133.723 8.16044 134.817 7.88179 135.718C7.64295 136.619 7.30459 137.069 6.86671 137.069H1.43305ZM16.719 64.2875C19.1074 64.2875 20.8987 62.55 22.0929 59.075C23.3269 55.6 23.9439 50.5806 23.9439 44.0167C23.9439 37.4528 23.3269 32.369 22.0929 28.7653C20.8987 25.1616 19.1074 23.3597 16.719 23.3597H8.29977V64.2875H16.719Z" fill="#D54D49"/>
<path d="M41.6094 137.069C41.2113 137.069 40.873 136.619 40.5943 135.718C40.3157 134.817 40.1763 133.723 40.1763 132.436V6.75695C40.1763 5.3412 40.2958 4.18287 40.5346 3.28195C40.8133 2.38102 41.1715 1.93055 41.6094 1.93055H67.882C68.3199 1.93055 68.6782 2.38102 68.9568 3.28195C69.2355 4.18287 69.3748 5.3412 69.3748 6.75695V19.4986C69.3748 20.9143 69.2355 22.0727 68.9568 22.9736C68.6782 23.7458 68.3199 24.1319 67.882 24.1319H48.2373V58.3028H66.5684C67.0063 58.3028 67.3645 58.7532 67.6432 59.6542C67.9218 60.4264 68.0612 61.5204 68.0612 62.9361V74.9055C68.0612 76.3213 67.9218 77.4796 67.6432 78.3806C67.3645 79.1528 67.0063 79.5389 66.5684 79.5389H48.2373V114.868H68.3597C68.7976 114.868 69.1559 115.319 69.4345 116.219C69.7132 117.12 69.8525 118.279 69.8525 119.694V132.436C69.8525 133.852 69.7132 135.01 69.4345 135.911C69.1559 136.683 68.7976 137.069 68.3597 137.069H41.6094Z" fill="#D54D49"/>
<path d="M89.1516 137.069C87.9972 137.069 87.2409 135.268 86.8826 131.664L74.1045 7.72223L73.9851 5.98472C73.9851 4.82639 74.1045 3.86111 74.3434 3.08889C74.5822 2.31667 74.8808 1.93055 75.239 1.93055H80.4936C81.0111 1.93055 81.4091 2.38102 81.6878 3.28195C82.0062 4.05417 82.2252 5.01944 82.3446 6.17778L92.4357 105.601L102.527 6.17778C102.606 5.14815 102.805 4.18287 103.124 3.28195C103.442 2.38102 103.86 1.93055 104.378 1.93055H109.632C109.951 1.93055 110.229 2.31667 110.468 3.08889C110.747 3.86111 110.886 4.82639 110.886 5.98472L110.767 7.72223L97.9888 131.664C97.6305 135.268 96.8742 137.069 95.7198 137.069H89.1516Z" fill="#D54D49"/>
<path d="M118.638 137.069C118.24 137.069 117.902 136.619 117.623 135.718C117.345 134.817 117.205 133.723 117.205 132.436V6.56388C117.205 5.14815 117.345 4.05417 117.623 3.28195C117.902 2.38102 118.24 1.93055 118.638 1.93055H124.251C124.689 1.93055 125.027 2.38102 125.266 3.28195C125.545 4.05417 125.684 5.14815 125.684 6.56388V132.436C125.684 133.723 125.545 134.817 125.266 135.718C125.027 136.619 124.689 137.069 124.251 137.069H118.638Z" fill="#D54D49"/>
<path d="M136.482 137.069C136.083 137.069 135.745 136.619 135.466 135.718C135.188 134.817 135.048 133.723 135.048 132.436V6.75695C135.048 5.3412 135.168 4.18287 135.407 3.28195C135.685 2.38102 136.044 1.93055 136.482 1.93055H162.754C163.192 1.93055 163.55 2.38102 163.829 3.28195C164.108 4.18287 164.247 5.3412 164.247 6.75695V19.4986C164.247 20.9143 164.108 22.0727 163.829 22.9736C163.55 23.7458 163.192 24.1319 162.754 24.1319H143.109V58.3028H161.441C161.878 58.3028 162.237 58.7532 162.515 59.6542C162.794 60.4264 162.933 61.5204 162.933 62.9361V74.9055C162.933 76.3213 162.794 77.4796 162.515 78.3806C162.237 79.1528 161.878 79.5389 161.441 79.5389H143.109V114.868H163.232C163.67 114.868 164.028 115.319 164.307 116.219C164.585 117.12 164.725 118.279 164.725 119.694V132.436C164.725 133.852 164.585 135.01 164.307 135.911C164.028 136.683 163.67 137.069 163.232 137.069H136.482Z" fill="#D54D49"/>
<path d="M179.059 137.069C178.462 137.069 177.985 136.555 177.626 135.525C177.268 134.495 177.049 133.08 176.969 131.278L169.864 7.52917L169.804 5.98472C169.804 4.82639 169.924 3.86111 170.162 3.08889C170.441 2.31667 170.74 1.93055 171.058 1.93055H176.313C177.308 1.93055 177.865 3.21759 177.985 5.79167L182.941 93.2458L188.314 36.6806C188.713 33.463 189.369 31.8542 190.285 31.8542H193.509C194.504 31.8542 195.141 33.463 195.42 36.6806L200.854 93.0528L205.81 5.79167C205.889 4.37593 206.049 3.41065 206.287 2.89583C206.566 2.25231 206.964 1.93055 207.482 1.93055H212.736C213.055 1.93055 213.333 2.31667 213.572 3.08889C213.811 3.86111 213.93 4.82639 213.93 5.98472C213.93 6.62824 213.91 7.14306 213.871 7.52917L206.765 131.278C206.566 135.139 205.869 137.069 204.675 137.069H200.675C200.117 137.069 199.66 136.619 199.301 135.718C198.943 134.817 198.704 133.659 198.585 132.243L191.897 67.7625L185.21 132.243C184.811 135.461 184.095 137.069 183.06 137.069H179.059Z" fill="#D54D49"/>
<path d="M235.042 139C231.499 139 228.454 137.262 225.906 133.787C223.359 130.312 221.428 125.744 220.115 120.081C218.801 114.418 218.104 108.304 218.025 101.74C218.025 100.582 218.144 99.6167 218.383 98.8444C218.622 98.0722 218.92 97.6861 219.279 97.6861H224.593C225.071 97.6861 225.429 98.0079 225.668 98.6514C225.946 99.1662 226.205 100.067 226.444 101.354C226.842 105.73 227.758 109.398 229.191 112.358C230.624 115.319 232.574 116.799 235.042 116.799C237.869 116.799 239.998 115.319 241.431 112.358C242.864 109.269 243.581 105.022 243.581 99.6167C243.581 96.013 243.203 93.0528 242.446 90.7361C241.73 88.4194 240.635 86.4245 239.162 84.7514C237.729 83.0782 235.58 81.019 232.713 78.5736C228.016 74.9699 224.573 70.2079 222.384 64.2875C220.234 58.2384 219.159 49.6796 219.159 38.6111C219.159 31.1463 219.776 24.5181 221.01 18.7264C222.284 12.9347 224.095 8.36574 226.444 5.01945C228.832 1.67315 231.599 0 234.744 0C238.008 0 240.834 1.8662 243.223 5.59861C245.611 9.33102 247.422 14.0287 248.656 19.6917C249.93 25.2259 250.607 30.7602 250.686 36.2944C250.686 37.4528 250.567 38.4181 250.328 39.1903C250.089 39.9625 249.791 40.3486 249.432 40.3486H243.879C243.043 40.3486 242.466 39.1259 242.148 36.6806C241.909 32.562 241.113 29.1514 239.759 26.4486C238.406 23.6171 236.734 22.2014 234.744 22.2014C232.514 22.2014 230.763 23.5528 229.489 26.2556C228.215 28.9583 227.578 32.8838 227.578 38.0319C227.578 41.6356 227.897 44.5958 228.534 46.9125C229.171 49.2292 230.166 51.2884 231.519 53.0903C232.913 54.8921 234.903 56.887 237.49 59.075C240.993 61.6491 243.78 64.5449 245.85 67.7625C247.96 70.9801 249.512 75.0343 250.507 79.925C251.502 84.8157 252 91.0579 252 98.6514C252 106.888 251.283 114.096 249.85 120.274C248.457 126.323 246.467 130.956 243.879 134.174C241.332 137.391 238.386 139 235.042 139Z" fill="#D54D49"/>
</svg>
