<svg width="610" height="177" viewBox="0 0 610 177" fill="none" xmlns="http://www.w3.org/2000/svg">
<mask id="path-1-outside-1_1250_74" maskUnits="userSpaceOnUse" x="0" y="0" width="610" height="177" fill="black">
<rect fill="white" width="610" height="177"/>
<path fill-rule="evenodd" clip-rule="evenodd" d="M269.36 31V3.68C269.36 3.328 269.472 3.04 269.696 2.816C269.952 2.592 270.24 2.48 270.56 2.48H283.616C287.808 2.48 291.072 3.44 293.408 5.36C295.776 7.248 296.96 9.936 296.96 13.424C296.96 15.664 296.432 17.568 295.376 19.136C294.32 20.704 292.864 21.904 291.008 22.736L295.61 31H302.547V3.68C302.547 3.328 302.659 3.04 302.884 2.816C303.139 2.592 303.427 2.48 303.747 2.48H326.164C326.516 2.48 326.803 2.592 327.027 2.816C327.251 3.04 327.363 3.328 327.363 3.68V8.192C327.363 8.512 327.251 8.8 327.027 9.056C326.803 9.28 326.516 9.392 326.164 9.392H310.852V15.872H325.108C325.46 15.872 325.747 16 325.971 16.256C326.195 16.48 326.307 16.768 326.307 17.12V21.296C326.307 21.616 326.195 21.904 325.971 22.16C325.747 22.384 325.46 22.496 325.108 22.496H310.852V29.168H326.548C326.9 29.168 327.188 29.28 327.411 29.504C327.635 29.728 327.747 30.016 327.747 30.368V31H331.656L341.604 3.824C341.7 3.44 341.908 3.12 342.228 2.864C342.548 2.608 342.964 2.48 343.476 2.48H350.58C351.092 2.48 351.508 2.608 351.828 2.864C352.148 3.12 352.356 3.44 352.452 3.824L362.357 31H367.563V3.68C367.563 3.328 367.675 3.04 367.899 2.816C368.155 2.592 368.443 2.48 368.763 2.48H375.099C375.451 2.48 375.739 2.592 375.963 2.816C376.187 3.04 376.299 3.328 376.299 3.68V28.832H390.843C391.195 28.832 391.483 28.96 391.707 29.216C391.931 29.44 392.043 29.728 392.043 30.08V31H404.577C403.799 29.7279 403.383 28.3652 403.329 26.912C403.329 26.656 403.426 26.432 403.617 26.24C403.841 26.016 404.098 25.904 404.385 25.904H410.434C410.818 25.904 411.121 25.984 411.345 26.144C411.602 26.272 411.858 26.48 412.113 26.768C412.53 27.6 413.202 28.288 414.129 28.832C415.057 29.376 416.289 29.648 417.826 29.648C419.65 29.648 421.042 29.36 422.001 28.784C422.961 28.208 423.441 27.424 423.441 26.432C423.441 25.728 423.185 25.152 422.673 24.704C422.194 24.256 421.426 23.856 420.37 23.504C419.314 23.152 417.746 22.752 415.665 22.304C411.826 21.504 408.945 20.336 407.026 18.8C405.138 17.232 404.194 15.008 404.194 12.128C404.194 10.176 404.737 8.432 405.826 6.896C406.914 5.36 408.466 4.16 410.482 3.296C412.497 2.432 414.849 2 417.538 2C420.322 2 422.737 2.48 424.785 3.44C426.833 4.4 428.385 5.616 429.441 7.088C430.53 8.528 431.105 9.952 431.169 11.36C431.169 11.648 431.073 11.888 430.882 12.08C430.69 12.272 430.449 12.368 430.161 12.368H423.826C423.441 12.368 423.121 12.304 422.866 12.176C422.642 12.048 422.434 11.84 422.241 11.552C422.049 10.816 421.522 10.192 420.658 9.68C419.826 9.168 418.785 8.912 417.538 8.912C416.098 8.912 414.993 9.168 414.225 9.68C413.457 10.192 413.073 10.944 413.073 11.936C413.073 12.608 413.281 13.168 413.698 13.616C414.146 14.064 414.849 14.48 415.81 14.864C416.802 15.216 418.21 15.584 420.034 15.968C423.009 16.512 425.378 17.2 427.138 18.032C428.93 18.832 430.242 19.888 431.074 21.2C431.905 22.48 432.322 24.096 432.322 26.048C432.322 27.9021 431.855 29.5527 430.922 31H444.19V10.016H435.646C435.326 10.016 435.038 9.904 434.781 9.68C434.557 9.424 434.445 9.136 434.445 8.816V3.68C434.445 3.328 434.557 3.04 434.781 2.816C435.038 2.592 435.326 2.48 435.646 2.48H461.47C461.822 2.48 462.109 2.592 462.333 2.816C462.557 3.04 462.669 3.328 462.669 3.68V8.816C462.669 9.168 462.557 9.456 462.333 9.68C462.109 9.904 461.822 10.016 461.47 10.016H452.926V31H467.597C466.285 29.0144 465.573 26.5157 465.46 23.504C465.428 22.576 465.412 21.2 465.412 19.376C465.412 17.52 465.428 16.128 465.46 15.2C465.62 10.976 467.012 7.728 469.636 5.456C472.292 3.152 475.828 2 480.244 2C484.66 2 488.196 3.152 490.852 5.456C493.508 7.728 494.9 10.976 495.028 15.2C495.092 17.056 495.124 18.448 495.124 19.376C495.124 20.272 495.092 21.648 495.028 23.504C494.893 27.1389 493.883 30.0264 492 32.1667V175H2V31H269.36ZM353.727 31L353.412 30.176H340.596L340.289 31H353.727ZM286.407 31L282.896 24.224H278V31H286.407ZM286.88 16.352C286.112 17.056 284.992 17.408 283.52 17.408H278V9.152H283.52C285.024 9.152 286.144 9.536 286.88 10.304C287.648 11.04 288.032 12.048 288.032 13.328C288.032 14.608 287.648 15.616 286.88 16.352ZM347.028 10.592L351.492 23.264H342.564L347.028 10.592ZM484.42 28.064C483.396 29.12 482.004 29.648 480.244 29.648C478.484 29.648 477.092 29.12 476.068 28.064C475.044 27.008 474.484 25.392 474.388 23.216C474.356 22.288 474.34 20.976 474.34 19.28C474.34 17.552 474.356 16.24 474.388 15.344C474.484 13.168 475.044 11.552 476.068 10.496C477.124 9.44 478.516 8.912 480.244 8.912C481.972 8.912 483.364 9.44 484.42 10.496C485.476 11.552 486.036 13.168 486.1 15.344C486.164 17.136 486.196 18.448 486.196 19.28C486.196 20.048 486.164 21.36 486.1 23.216C486.036 25.392 485.476 27.008 484.42 28.064ZM501.024 35.744C501.28 35.968 501.568 36.08 501.888 36.08H508.08C508.432 36.08 508.72 35.968 508.944 35.744C509.2 35.52 509.328 35.232 509.328 34.88V24.224H514.224L519.696 34.784C520.08 35.648 520.736 36.08 521.664 36.08H528.048C528.304 36.08 528.528 35.984 528.72 35.792C528.944 35.568 529.056 35.328 529.056 35.072C529.056 34.912 529.008 34.736 528.912 34.544L522.336 22.736C524.192 21.904 525.648 20.704 526.704 19.136C527.76 17.568 528.288 15.664 528.288 13.424C528.288 9.936 527.104 7.248 524.736 5.36C522.4 3.44 519.136 2.48 514.944 2.48H501.888C501.568 2.48 501.28 2.592 501.024 2.816C500.8 3.04 500.688 3.328 500.688 3.68V34.88C500.688 35.2 500.8 35.488 501.024 35.744ZM518.208 16.352C517.44 17.056 516.32 17.408 514.848 17.408H509.328V9.152H514.848C516.352 9.152 517.472 9.536 518.208 10.304C518.976 11.04 519.36 12.048 519.36 13.328C519.36 14.608 518.976 15.616 518.208 16.352ZM534.212 35.744C534.468 35.968 534.756 36.08 535.076 36.08H541.508C541.86 36.08 542.148 35.968 542.372 35.744C542.628 35.52 542.756 35.232 542.756 34.88V3.68C542.756 3.328 542.628 3.04 542.372 2.816C542.148 2.592 541.86 2.48 541.508 2.48H535.076C534.756 2.48 534.468 2.592 534.212 2.816C533.988 3.04 533.876 3.328 533.876 3.68V34.88C533.876 35.2 533.988 35.488 534.212 35.744ZM549.774 35.744C550.03 35.968 550.318 36.08 550.638 36.08H573.438C573.79 36.08 574.078 35.968 574.302 35.744C574.526 35.488 574.638 35.2 574.638 34.88V30.368C574.638 30.016 574.526 29.728 574.302 29.504C574.078 29.28 573.79 29.168 573.438 29.168H557.742V22.496H571.998C572.35 22.496 572.638 22.384 572.862 22.16C573.086 21.904 573.198 21.616 573.198 21.296V17.12C573.198 16.768 573.086 16.48 572.862 16.256C572.638 16 572.35 15.872 571.998 15.872H557.742V9.392H573.054C573.406 9.392 573.694 9.28 573.918 9.056C574.142 8.8 574.254 8.512 574.254 8.192V3.68C574.254 3.328 574.142 3.04 573.918 2.816C573.694 2.592 573.406 2.48 573.054 2.48H550.638C550.318 2.48 550.03 2.592 549.774 2.816C549.55 3.04 549.438 3.328 549.438 3.68V34.88C549.438 35.2 549.55 35.488 549.774 35.744ZM584.798 35.216C586.974 36.112 589.582 36.56 592.622 36.56C595.438 36.56 597.934 36.144 600.11 35.312C602.318 34.448 604.03 33.232 605.246 31.664C606.494 30.064 607.118 28.192 607.118 26.048C607.118 24.096 606.702 22.48 605.87 21.2C605.038 19.888 603.726 18.832 601.934 18.032C600.174 17.2 597.806 16.512 594.83 15.968C593.006 15.584 591.598 15.216 590.606 14.864C589.646 14.48 588.942 14.064 588.494 13.616C588.078 13.168 587.87 12.608 587.87 11.936C587.87 10.944 588.254 10.192 589.022 9.68C589.79 9.168 590.894 8.912 592.334 8.912C593.582 8.912 594.622 9.168 595.454 9.68C596.318 10.192 596.846 10.816 597.038 11.552C597.23 11.84 597.438 12.048 597.662 12.176C597.918 12.304 598.238 12.368 598.622 12.368H604.958C605.246 12.368 605.486 12.272 605.678 12.08C605.87 11.888 605.966 11.648 605.966 11.36C605.902 9.952 605.326 8.528 604.238 7.088C603.182 5.616 601.63 4.4 599.582 3.44C597.534 2.48 595.118 2 592.334 2C589.646 2 587.294 2.432 585.278 3.296C583.262 4.16 581.71 5.36 580.622 6.896C579.534 8.432 578.99 10.176 578.99 12.128C578.99 15.008 579.934 17.232 581.822 18.8C583.742 20.336 586.622 21.504 590.462 22.304C592.542 22.752 594.11 23.152 595.166 23.504C596.222 23.856 596.99 24.256 597.47 24.704C597.982 25.152 598.238 25.728 598.238 26.432C598.238 27.424 597.758 28.208 596.798 28.784C595.838 29.36 594.446 29.648 592.622 29.648C591.086 29.648 589.854 29.376 588.926 28.832C587.998 28.288 587.326 27.6 586.91 26.768C586.654 26.48 586.398 26.272 586.142 26.144C585.918 25.984 585.614 25.904 585.23 25.904H579.182C578.894 25.904 578.638 26.016 578.414 26.24C578.222 26.432 578.126 26.656 578.126 26.912C578.19 28.64 578.766 30.24 579.854 31.712C580.974 33.152 582.622 34.32 584.798 35.216Z"/>
</mask>
<path fill-rule="evenodd" clip-rule="evenodd" d="M269.36 31V3.68C269.36 3.328 269.472 3.04 269.696 2.816C269.952 2.592 270.24 2.48 270.56 2.48H283.616C287.808 2.48 291.072 3.44 293.408 5.36C295.776 7.248 296.96 9.936 296.96 13.424C296.96 15.664 296.432 17.568 295.376 19.136C294.32 20.704 292.864 21.904 291.008 22.736L295.61 31H302.547V3.68C302.547 3.328 302.659 3.04 302.884 2.816C303.139 2.592 303.427 2.48 303.747 2.48H326.164C326.516 2.48 326.803 2.592 327.027 2.816C327.251 3.04 327.363 3.328 327.363 3.68V8.192C327.363 8.512 327.251 8.8 327.027 9.056C326.803 9.28 326.516 9.392 326.164 9.392H310.852V15.872H325.108C325.46 15.872 325.747 16 325.971 16.256C326.195 16.48 326.307 16.768 326.307 17.12V21.296C326.307 21.616 326.195 21.904 325.971 22.16C325.747 22.384 325.46 22.496 325.108 22.496H310.852V29.168H326.548C326.9 29.168 327.188 29.28 327.411 29.504C327.635 29.728 327.747 30.016 327.747 30.368V31H331.656L341.604 3.824C341.7 3.44 341.908 3.12 342.228 2.864C342.548 2.608 342.964 2.48 343.476 2.48H350.58C351.092 2.48 351.508 2.608 351.828 2.864C352.148 3.12 352.356 3.44 352.452 3.824L362.357 31H367.563V3.68C367.563 3.328 367.675 3.04 367.899 2.816C368.155 2.592 368.443 2.48 368.763 2.48H375.099C375.451 2.48 375.739 2.592 375.963 2.816C376.187 3.04 376.299 3.328 376.299 3.68V28.832H390.843C391.195 28.832 391.483 28.96 391.707 29.216C391.931 29.44 392.043 29.728 392.043 30.08V31H404.577C403.799 29.7279 403.383 28.3652 403.329 26.912C403.329 26.656 403.426 26.432 403.617 26.24C403.841 26.016 404.098 25.904 404.385 25.904H410.434C410.818 25.904 411.121 25.984 411.345 26.144C411.602 26.272 411.858 26.48 412.113 26.768C412.53 27.6 413.202 28.288 414.129 28.832C415.057 29.376 416.289 29.648 417.826 29.648C419.65 29.648 421.042 29.36 422.001 28.784C422.961 28.208 423.441 27.424 423.441 26.432C423.441 25.728 423.185 25.152 422.673 24.704C422.194 24.256 421.426 23.856 420.37 23.504C419.314 23.152 417.746 22.752 415.665 22.304C411.826 21.504 408.945 20.336 407.026 18.8C405.138 17.232 404.194 15.008 404.194 12.128C404.194 10.176 404.737 8.432 405.826 6.896C406.914 5.36 408.466 4.16 410.482 3.296C412.497 2.432 414.849 2 417.538 2C420.322 2 422.737 2.48 424.785 3.44C426.833 4.4 428.385 5.616 429.441 7.088C430.53 8.528 431.105 9.952 431.169 11.36C431.169 11.648 431.073 11.888 430.882 12.08C430.69 12.272 430.449 12.368 430.161 12.368H423.826C423.441 12.368 423.121 12.304 422.866 12.176C422.642 12.048 422.434 11.84 422.241 11.552C422.049 10.816 421.522 10.192 420.658 9.68C419.826 9.168 418.785 8.912 417.538 8.912C416.098 8.912 414.993 9.168 414.225 9.68C413.457 10.192 413.073 10.944 413.073 11.936C413.073 12.608 413.281 13.168 413.698 13.616C414.146 14.064 414.849 14.48 415.81 14.864C416.802 15.216 418.21 15.584 420.034 15.968C423.009 16.512 425.378 17.2 427.138 18.032C428.93 18.832 430.242 19.888 431.074 21.2C431.905 22.48 432.322 24.096 432.322 26.048C432.322 27.9021 431.855 29.5527 430.922 31H444.19V10.016H435.646C435.326 10.016 435.038 9.904 434.781 9.68C434.557 9.424 434.445 9.136 434.445 8.816V3.68C434.445 3.328 434.557 3.04 434.781 2.816C435.038 2.592 435.326 2.48 435.646 2.48H461.47C461.822 2.48 462.109 2.592 462.333 2.816C462.557 3.04 462.669 3.328 462.669 3.68V8.816C462.669 9.168 462.557 9.456 462.333 9.68C462.109 9.904 461.822 10.016 461.47 10.016H452.926V31H467.597C466.285 29.0144 465.573 26.5157 465.46 23.504C465.428 22.576 465.412 21.2 465.412 19.376C465.412 17.52 465.428 16.128 465.46 15.2C465.62 10.976 467.012 7.728 469.636 5.456C472.292 3.152 475.828 2 480.244 2C484.66 2 488.196 3.152 490.852 5.456C493.508 7.728 494.9 10.976 495.028 15.2C495.092 17.056 495.124 18.448 495.124 19.376C495.124 20.272 495.092 21.648 495.028 23.504C494.893 27.1389 493.883 30.0264 492 32.1667V175H2V31H269.36ZM353.727 31L353.412 30.176H340.596L340.289 31H353.727ZM286.407 31L282.896 24.224H278V31H286.407ZM286.88 16.352C286.112 17.056 284.992 17.408 283.52 17.408H278V9.152H283.52C285.024 9.152 286.144 9.536 286.88 10.304C287.648 11.04 288.032 12.048 288.032 13.328C288.032 14.608 287.648 15.616 286.88 16.352ZM347.028 10.592L351.492 23.264H342.564L347.028 10.592ZM484.42 28.064C483.396 29.12 482.004 29.648 480.244 29.648C478.484 29.648 477.092 29.12 476.068 28.064C475.044 27.008 474.484 25.392 474.388 23.216C474.356 22.288 474.34 20.976 474.34 19.28C474.34 17.552 474.356 16.24 474.388 15.344C474.484 13.168 475.044 11.552 476.068 10.496C477.124 9.44 478.516 8.912 480.244 8.912C481.972 8.912 483.364 9.44 484.42 10.496C485.476 11.552 486.036 13.168 486.1 15.344C486.164 17.136 486.196 18.448 486.196 19.28C486.196 20.048 486.164 21.36 486.1 23.216C486.036 25.392 485.476 27.008 484.42 28.064ZM501.024 35.744C501.28 35.968 501.568 36.08 501.888 36.08H508.08C508.432 36.08 508.72 35.968 508.944 35.744C509.2 35.52 509.328 35.232 509.328 34.88V24.224H514.224L519.696 34.784C520.08 35.648 520.736 36.08 521.664 36.08H528.048C528.304 36.08 528.528 35.984 528.72 35.792C528.944 35.568 529.056 35.328 529.056 35.072C529.056 34.912 529.008 34.736 528.912 34.544L522.336 22.736C524.192 21.904 525.648 20.704 526.704 19.136C527.76 17.568 528.288 15.664 528.288 13.424C528.288 9.936 527.104 7.248 524.736 5.36C522.4 3.44 519.136 2.48 514.944 2.48H501.888C501.568 2.48 501.28 2.592 501.024 2.816C500.8 3.04 500.688 3.328 500.688 3.68V34.88C500.688 35.2 500.8 35.488 501.024 35.744ZM518.208 16.352C517.44 17.056 516.32 17.408 514.848 17.408H509.328V9.152H514.848C516.352 9.152 517.472 9.536 518.208 10.304C518.976 11.04 519.36 12.048 519.36 13.328C519.36 14.608 518.976 15.616 518.208 16.352ZM534.212 35.744C534.468 35.968 534.756 36.08 535.076 36.08H541.508C541.86 36.08 542.148 35.968 542.372 35.744C542.628 35.52 542.756 35.232 542.756 34.88V3.68C542.756 3.328 542.628 3.04 542.372 2.816C542.148 2.592 541.86 2.48 541.508 2.48H535.076C534.756 2.48 534.468 2.592 534.212 2.816C533.988 3.04 533.876 3.328 533.876 3.68V34.88C533.876 35.2 533.988 35.488 534.212 35.744ZM549.774 35.744C550.03 35.968 550.318 36.08 550.638 36.08H573.438C573.79 36.08 574.078 35.968 574.302 35.744C574.526 35.488 574.638 35.2 574.638 34.88V30.368C574.638 30.016 574.526 29.728 574.302 29.504C574.078 29.28 573.79 29.168 573.438 29.168H557.742V22.496H571.998C572.35 22.496 572.638 22.384 572.862 22.16C573.086 21.904 573.198 21.616 573.198 21.296V17.12C573.198 16.768 573.086 16.48 572.862 16.256C572.638 16 572.35 15.872 571.998 15.872H557.742V9.392H573.054C573.406 9.392 573.694 9.28 573.918 9.056C574.142 8.8 574.254 8.512 574.254 8.192V3.68C574.254 3.328 574.142 3.04 573.918 2.816C573.694 2.592 573.406 2.48 573.054 2.48H550.638C550.318 2.48 550.03 2.592 549.774 2.816C549.55 3.04 549.438 3.328 549.438 3.68V34.88C549.438 35.2 549.55 35.488 549.774 35.744ZM584.798 35.216C586.974 36.112 589.582 36.56 592.622 36.56C595.438 36.56 597.934 36.144 600.11 35.312C602.318 34.448 604.03 33.232 605.246 31.664C606.494 30.064 607.118 28.192 607.118 26.048C607.118 24.096 606.702 22.48 605.87 21.2C605.038 19.888 603.726 18.832 601.934 18.032C600.174 17.2 597.806 16.512 594.83 15.968C593.006 15.584 591.598 15.216 590.606 14.864C589.646 14.48 588.942 14.064 588.494 13.616C588.078 13.168 587.87 12.608 587.87 11.936C587.87 10.944 588.254 10.192 589.022 9.68C589.79 9.168 590.894 8.912 592.334 8.912C593.582 8.912 594.622 9.168 595.454 9.68C596.318 10.192 596.846 10.816 597.038 11.552C597.23 11.84 597.438 12.048 597.662 12.176C597.918 12.304 598.238 12.368 598.622 12.368H604.958C605.246 12.368 605.486 12.272 605.678 12.08C605.87 11.888 605.966 11.648 605.966 11.36C605.902 9.952 605.326 8.528 604.238 7.088C603.182 5.616 601.63 4.4 599.582 3.44C597.534 2.48 595.118 2 592.334 2C589.646 2 587.294 2.432 585.278 3.296C583.262 4.16 581.71 5.36 580.622 6.896C579.534 8.432 578.99 10.176 578.99 12.128C578.99 15.008 579.934 17.232 581.822 18.8C583.742 20.336 586.622 21.504 590.462 22.304C592.542 22.752 594.11 23.152 595.166 23.504C596.222 23.856 596.99 24.256 597.47 24.704C597.982 25.152 598.238 25.728 598.238 26.432C598.238 27.424 597.758 28.208 596.798 28.784C595.838 29.36 594.446 29.648 592.622 29.648C591.086 29.648 589.854 29.376 588.926 28.832C587.998 28.288 587.326 27.6 586.91 26.768C586.654 26.48 586.398 26.272 586.142 26.144C585.918 25.984 585.614 25.904 585.23 25.904H579.182C578.894 25.904 578.638 26.016 578.414 26.24C578.222 26.432 578.126 26.656 578.126 26.912C578.19 28.64 578.766 30.24 579.854 31.712C580.974 33.152 582.622 34.32 584.798 35.216Z" fill="#F3F3F1"/>
<path d="M269.36 31V33H271.36V31H269.36ZM269.696 2.816L268.379 1.3109L268.329 1.35468L268.282 1.40169L269.696 2.816ZM293.408 5.36L292.138 6.90508L292.15 6.91453L292.161 6.9238L293.408 5.36ZM295.376 19.136L297.035 20.2532L295.376 19.136ZM291.008 22.736L290.19 20.911L288.199 21.8033L289.261 23.7091L291.008 22.736ZM295.61 31L293.863 31.9731L294.435 33H295.61V31ZM302.547 31V33H304.547V31H302.547ZM302.884 2.816L301.566 1.3109L301.516 1.35468L301.469 1.40169L302.884 2.816ZM327.027 2.816L325.613 4.23021V4.23021L327.027 2.816ZM327.027 9.056L328.442 10.4702L328.489 10.4231L328.533 10.373L327.027 9.056ZM310.852 9.392V7.392H308.852V9.392H310.852ZM310.852 15.872H308.852V17.872H310.852V15.872ZM325.971 16.256L324.466 17.573L324.51 17.6231L324.557 17.6702L325.971 16.256ZM325.971 22.16L327.386 23.5742L327.433 23.5271L327.477 23.477L325.971 22.16ZM310.852 22.496V20.496H308.852V22.496H310.852ZM310.852 29.168H308.852V31.168H310.852V29.168ZM327.411 29.504L325.997 30.9182V30.9182L327.411 29.504ZM327.747 31H325.747V33H327.747V31ZM331.656 31V33H333.054L333.534 31.6875L331.656 31ZM341.604 3.824L343.482 4.51148L343.518 4.41187L343.544 4.30897L341.604 3.824ZM352.452 3.824L350.511 4.30911L350.537 4.4106L350.573 4.5089L352.452 3.824ZM362.357 31L360.478 31.6849L360.957 33H362.357V31ZM367.563 31V33H369.563V31H367.563ZM367.899 2.816L366.582 1.3109L366.532 1.35468L366.485 1.40169L367.899 2.816ZM375.963 2.816L374.549 4.23021V4.23021L375.963 2.816ZM376.299 28.832H374.299V30.832H376.299V28.832ZM391.707 29.216L390.202 30.533L390.246 30.5831L390.293 30.6302L391.707 29.216ZM392.043 31H390.043V33H392.043V31ZM404.577 31V33H408.145L406.283 29.9565L404.577 31ZM403.329 26.912H401.329V26.949L401.331 26.986L403.329 26.912ZM403.617 26.24L402.203 24.8258L402.203 24.8258L403.617 26.24ZM411.345 26.144L410.183 27.7715L410.311 27.8627L410.451 27.9329L411.345 26.144ZM412.113 26.768L413.902 25.8735L413.784 25.637L413.608 25.4393L412.113 26.768ZM414.129 28.832L413.118 30.5574V30.5574L414.129 28.832ZM422.001 28.784L420.973 27.069V27.069L422.001 28.784ZM422.673 24.704L421.309 26.1661L421.332 26.188L421.356 26.2091L422.673 24.704ZM420.37 23.504L419.737 25.4014V25.4014L420.37 23.504ZM415.665 22.304L416.087 20.3488L416.073 20.346L415.665 22.304ZM407.026 18.8L405.748 20.3386L405.762 20.3503L405.776 20.3617L407.026 18.8ZM405.826 6.896L404.193 5.73996V5.73996L405.826 6.896ZM424.785 3.44L423.937 5.25092V5.25092L424.785 3.44ZM429.441 7.088L427.816 8.25382L427.831 8.27393L427.846 8.29367L429.441 7.088ZM431.169 11.36H433.169V11.3146L433.167 11.2692L431.169 11.36ZM430.882 12.08L432.296 13.4942V13.4942L430.882 12.08ZM422.866 12.176L421.873 13.9125L421.921 13.94L421.971 13.9648L422.866 12.176ZM422.241 11.552L420.306 12.0568L420.391 12.3819L420.577 12.6615L422.241 11.552ZM420.658 9.68L419.609 11.3833L419.624 11.3921L419.638 11.4006L420.658 9.68ZM414.225 9.68L415.335 11.3441V11.3441L414.225 9.68ZM413.698 13.616L412.232 14.9769L412.257 15.004L412.283 15.0302L413.698 13.616ZM415.81 14.864L415.067 16.721L415.103 16.7356L415.141 16.7489L415.81 14.864ZM420.034 15.968L419.621 17.9251L419.648 17.9306L419.674 17.9354L420.034 15.968ZM427.138 18.032L426.283 19.8401L426.302 19.8494L426.322 19.8583L427.138 18.032ZM431.074 21.2L429.384 22.2711L429.391 22.2806L429.397 22.2899L431.074 21.2ZM430.922 31L429.241 29.9161L427.252 33H430.922V31ZM444.19 31V33H446.19V31H444.19ZM444.19 10.016H446.19V8.016H444.19V10.016ZM434.781 9.68L433.276 10.997L433.364 11.0974L433.465 11.1852L434.781 9.68ZM434.781 2.816L433.465 1.31082L433.414 1.35468L433.367 1.40179L434.781 2.816ZM462.333 2.816L460.919 4.23021V4.23021L462.333 2.816ZM462.333 9.68L463.748 11.0942V11.0942L462.333 9.68ZM452.926 10.016V8.016H450.926V10.016H452.926ZM452.926 31H450.926V33H452.926V31ZM467.597 31V33H471.316L469.266 29.8974L467.597 31ZM465.46 23.504L463.461 23.5729L463.462 23.5786L465.46 23.504ZM465.46 15.2L463.462 15.1243L463.461 15.1311L465.46 15.2ZM469.636 5.456L470.945 6.96799L470.947 6.96677L469.636 5.456ZM490.852 5.456L489.542 6.96682L489.552 6.9758L490.852 5.456ZM495.028 15.2L493.029 15.2606L493.029 15.2689L495.028 15.2ZM495.028 23.504L497.027 23.5786L497.027 23.5729L495.028 23.504ZM492 32.1667L490.499 30.8455L490 31.4121V32.1667H492ZM492 175V177H494V175H492ZM2 175H0V177H2V175ZM2 31V29H0V31H2ZM353.727 31V33H356.633L355.595 30.2857L353.727 31ZM353.412 30.176L355.28 29.4617L354.788 28.176H353.412V30.176ZM340.596 30.176V28.176H339.207L338.722 29.4778L340.596 30.176ZM340.289 31L338.415 30.3018L337.409 33H340.289V31ZM286.407 31V33H289.696L288.183 30.0798L286.407 31ZM282.896 24.224L284.672 23.3038L284.112 22.224H282.896V24.224ZM278 24.224V22.224H276V24.224H278ZM278 31H276V33H278V31ZM286.88 16.352L288.231 17.8263L288.248 17.8113L288.264 17.796L286.88 16.352ZM278 17.408H276V19.408H278V17.408ZM278 9.152V7.152H276V9.152H278ZM286.88 10.304L285.436 11.6878L285.465 11.7185L285.496 11.748L286.88 10.304ZM351.492 23.264V25.264H354.317L353.378 22.5995L351.492 23.264ZM347.028 10.592L348.914 9.92748L347.028 4.57261L345.141 9.92748L347.028 10.592ZM342.564 23.264L340.677 22.5995L339.739 25.264H342.564V23.264ZM484.42 28.064L483.006 26.6498L482.995 26.6607L482.984 26.6717L484.42 28.064ZM476.068 28.064L474.632 29.4563L474.632 29.4563L476.068 28.064ZM474.388 23.216L472.389 23.2849L472.39 23.2945L472.39 23.3042L474.388 23.216ZM474.388 15.344L472.39 15.2558L472.39 15.2642L472.39 15.2727L474.388 15.344ZM476.068 10.496L474.654 9.08179L474.643 9.09267L474.632 9.10372L476.068 10.496ZM484.42 10.496L485.834 9.08179V9.08179L484.42 10.496ZM486.1 15.344L484.101 15.4028L484.102 15.4154L486.1 15.344ZM486.1 23.216L484.101 23.1471L484.101 23.1572L486.1 23.216ZM501.024 35.744L499.519 37.0611L499.607 37.1614L499.707 37.2491L501.024 35.744ZM508.944 35.744L507.627 34.2388L507.577 34.2827L507.53 34.3298L508.944 35.744ZM509.328 24.224V22.224H507.328V24.224H509.328ZM514.224 24.224L516 23.3038L515.44 22.224H514.224V24.224ZM519.696 34.784L521.524 33.9717L521.499 33.917L521.472 33.8638L519.696 34.784ZM528.72 35.792L530.134 37.2063L530.134 37.2062L528.72 35.792ZM528.912 34.544L530.701 33.6495L530.681 33.6097L530.659 33.5709L528.912 34.544ZM522.336 22.736L521.518 20.911L519.527 21.8033L520.589 23.7091L522.336 22.736ZM526.704 19.136L525.045 18.0188V18.0188L526.704 19.136ZM524.736 5.36L523.466 6.90508L523.478 6.91452L523.489 6.92379L524.736 5.36ZM501.024 2.816L499.707 1.3109L499.657 1.35468L499.61 1.40169L501.024 2.816ZM518.208 16.352L519.56 17.8263L519.576 17.8113L519.592 17.796L518.208 16.352ZM509.328 17.408H507.328V19.408H509.328V17.408ZM509.328 9.152V7.152H507.328V9.152H509.328ZM518.208 10.304L516.764 11.6878L516.794 11.7185L516.824 11.748L518.208 10.304ZM534.212 35.744L532.706 37.061L532.794 37.1614L532.895 37.2493L534.212 35.744ZM542.372 35.744L541.055 34.2389L541.005 34.2827L540.957 34.3298L542.372 35.744ZM542.372 2.816L540.957 4.23021L541.005 4.27728L541.055 4.32111L542.372 2.816ZM534.212 2.816L532.895 1.31074L532.845 1.35464L532.797 1.40179L534.212 2.816ZM549.774 35.744L548.269 37.061L548.357 37.1614L548.457 37.2493L549.774 35.744ZM574.302 35.744L575.716 37.1582L575.763 37.1111L575.807 37.061L574.302 35.744ZM574.302 29.504L572.888 30.9182L572.888 30.9182L574.302 29.504ZM557.742 29.168H555.742V31.168H557.742V29.168ZM557.742 22.496V20.496H555.742V22.496H557.742ZM572.862 22.16L574.276 23.5742L574.323 23.5271L574.367 23.477L572.862 22.16ZM572.862 16.256L571.357 17.573L571.401 17.6231L571.448 17.6702L572.862 16.256ZM557.742 15.872H555.742V17.872H557.742V15.872ZM557.742 9.392V7.392H555.742V9.392H557.742ZM573.918 9.056L575.332 10.4702L575.379 10.4231L575.423 10.373L573.918 9.056ZM573.918 2.816L572.504 4.23021L572.504 4.23021L573.918 2.816ZM549.774 2.816L548.457 1.31074L548.407 1.35464L548.36 1.40179L549.774 2.816ZM584.798 35.216L585.56 33.3667L585.56 33.3666L584.798 35.216ZM600.11 35.312L600.825 37.1801L600.832 37.1773L600.839 37.1745L600.11 35.312ZM605.246 31.664L603.669 30.4339L603.666 30.4384L605.246 31.664ZM605.87 21.2L604.181 22.2711L604.187 22.2806L604.193 22.29L605.87 21.2ZM601.934 18.032L601.08 19.8401L601.099 19.8494L601.119 19.8583L601.934 18.032ZM594.83 15.968L594.418 17.9251L594.445 17.9306L594.471 17.9354L594.83 15.968ZM590.606 14.864L589.864 16.721L589.9 16.7356L589.938 16.7489L590.606 14.864ZM588.494 13.616L587.029 14.9769L587.054 15.004L587.08 15.0302L588.494 13.616ZM589.022 9.68L590.132 11.3441V11.3441L589.022 9.68ZM595.454 9.68L594.406 11.3833L594.42 11.3921L594.435 11.4006L595.454 9.68ZM597.038 11.552L595.103 12.0569L595.188 12.3818L595.374 12.6612L597.038 11.552ZM597.662 12.176L596.67 13.9125L596.718 13.9401L596.768 13.9649L597.662 12.176ZM605.678 12.08L607.093 13.4943L607.093 13.494L605.678 12.08ZM605.966 11.36H607.966V11.3146L607.964 11.2692L605.966 11.36ZM604.238 7.088L602.613 8.25384L602.628 8.27392L602.643 8.29363L604.238 7.088ZM599.582 3.44L600.431 1.62909V1.62908L599.582 3.44ZM580.622 6.896L578.99 5.73996V5.73996L580.622 6.896ZM581.822 18.8L580.545 20.3386L580.559 20.3503L580.573 20.3617L581.822 18.8ZM590.462 22.304L590.884 20.3488L590.87 20.346L590.462 22.304ZM595.166 23.504L595.799 21.6066V21.6066L595.166 23.504ZM597.47 24.704L596.106 26.1662L596.129 26.188L596.153 26.2091L597.47 24.704ZM596.798 28.784L597.827 30.499V30.499L596.798 28.784ZM588.926 28.832L589.938 27.1066L589.938 27.1066L588.926 28.832ZM586.91 26.768L588.699 25.8737L588.581 25.6369L588.405 25.4392L586.91 26.768ZM586.142 26.144L584.98 27.7715L585.108 27.8627L585.248 27.9328L586.142 26.144ZM578.414 26.24L579.828 27.6543L579.829 27.6542L578.414 26.24ZM578.126 26.912H576.126V26.949L576.128 26.986L578.126 26.912ZM579.854 31.712L578.246 32.9008L578.261 32.9205L578.276 32.9399L579.854 31.712ZM271.36 31V3.68H267.36V31H271.36ZM271.36 3.68C271.36 3.71779 271.353 3.80795 271.308 3.92493C271.261 4.04603 271.189 4.15126 271.11 4.23031L268.282 1.40169C267.639 2.04413 267.36 2.86216 267.36 3.68H271.36ZM271.013 4.3211C270.984 4.34686 270.922 4.39163 270.829 4.428C270.734 4.46508 270.639 4.48 270.56 4.48V0.48C269.723 0.48 268.975 0.789692 268.379 1.3109L271.013 4.3211ZM270.56 4.48H283.616V0.48H270.56V4.48ZM283.616 4.48C287.522 4.48 290.276 5.37492 292.138 6.90508L294.678 3.81492C291.868 1.50508 288.094 0.48 283.616 0.48V4.48ZM292.161 6.9238C293.977 8.3719 294.96 10.4407 294.96 13.424H298.96C298.96 9.43128 297.575 6.1241 294.655 3.7962L292.161 6.9238ZM294.96 13.424C294.96 15.341 294.512 16.8382 293.717 18.0188L297.035 20.2532C298.352 18.2978 298.96 15.987 298.96 13.424H294.96ZM293.717 18.0188C292.886 19.2534 291.732 20.2197 290.19 20.911L291.826 24.561C293.996 23.5883 295.754 22.1546 297.035 20.2532L293.717 18.0188ZM289.261 23.7091L293.863 31.9731L297.358 30.0269L292.755 21.7629L289.261 23.7091ZM295.61 33H302.547V29H295.61V33ZM304.547 31V3.68H300.547V31H304.547ZM304.547 3.68C304.547 3.71779 304.541 3.80795 304.495 3.92493C304.448 4.04603 304.377 4.15126 304.298 4.23031L301.469 1.40169C300.827 2.04413 300.547 2.86216 300.547 3.68H304.547ZM304.201 4.3211C304.171 4.34686 304.11 4.39163 304.016 4.428C303.921 4.46508 303.826 4.48 303.747 4.48V0.48C302.911 0.48 302.162 0.789692 301.566 1.3109L304.201 4.3211ZM303.747 4.48H326.164V0.48H303.747V4.48ZM326.164 4.48C326.126 4.48 326.036 4.47349 325.919 4.428C325.798 4.38092 325.692 4.30924 325.613 4.23021L328.442 1.40179C327.799 0.759393 326.981 0.48 326.164 0.48V4.48ZM325.613 4.23021C325.534 4.15117 325.463 4.04596 325.415 3.92489C325.37 3.80793 325.363 3.71779 325.363 3.68H329.363C329.363 2.86217 329.084 2.0442 328.442 1.40179L325.613 4.23021ZM325.363 3.68V8.192H329.363V3.68H325.363ZM325.363 8.192C325.363 8.113 325.378 8.01844 325.415 7.92311C325.452 7.82961 325.497 7.76841 325.522 7.739L328.533 10.373C329.054 9.7774 329.363 9.02864 329.363 8.192H325.363ZM325.613 7.64179C325.692 7.56275 325.798 7.49108 325.919 7.44399C326.036 7.39851 326.126 7.392 326.164 7.392V11.392C326.981 11.392 327.799 11.1126 328.442 10.4702L325.613 7.64179ZM326.164 7.392H310.852V11.392H326.164V7.392ZM308.852 9.392V15.872H312.852V9.392H308.852ZM310.852 17.872H325.108V13.872H310.852V17.872ZM325.108 17.872C325.036 17.872 324.915 17.8579 324.775 17.7956C324.633 17.7326 324.53 17.6459 324.466 17.573L327.477 14.939C326.858 14.232 326.013 13.872 325.108 13.872V17.872ZM324.557 17.6702C324.478 17.5912 324.407 17.486 324.359 17.3649C324.314 17.2479 324.307 17.1578 324.307 17.12H328.307C328.307 16.3022 328.028 15.4842 327.386 14.8418L324.557 17.6702ZM324.307 17.12V21.296H328.307V17.12H324.307ZM324.307 21.296C324.307 21.217 324.322 21.1224 324.359 21.0271C324.396 20.9336 324.441 20.8724 324.466 20.843L327.477 23.477C327.998 22.8814 328.307 22.1326 328.307 21.296H324.307ZM324.557 20.7458C324.636 20.6668 324.742 20.5951 324.863 20.548C324.98 20.5025 325.07 20.496 325.108 20.496V24.496C325.925 24.496 326.743 24.2166 327.386 23.5742L324.557 20.7458ZM325.108 20.496H310.852V24.496H325.108V20.496ZM308.852 22.496V29.168H312.852V22.496H308.852ZM310.852 31.168H326.548V27.168H310.852V31.168ZM326.548 31.168C326.51 31.168 326.42 31.1615 326.303 31.116C326.182 31.0689 326.076 30.9972 325.997 30.9182L328.826 28.0898C328.183 27.4474 327.365 27.168 326.548 27.168V31.168ZM325.997 30.9182C325.918 30.8392 325.847 30.734 325.799 30.6129C325.754 30.4959 325.747 30.4058 325.747 30.368H329.747C329.747 29.5502 329.468 28.7322 328.826 28.0898L325.997 30.9182ZM325.747 30.368V31H329.747V30.368H325.747ZM327.747 33H331.656V29H327.747V33ZM333.534 31.6875L343.482 4.51148L339.726 3.13652L329.778 30.3125L333.534 31.6875ZM343.544 4.30897C343.54 4.32379 343.53 4.35346 343.509 4.38598C343.488 4.41782 343.472 4.43018 343.477 4.42575L340.978 1.30225C340.329 1.82141 339.87 2.51422 339.663 3.33903L343.544 4.30897ZM343.477 4.42575C343.455 4.44358 343.432 4.45812 343.411 4.46917C343.39 4.4801 343.375 4.4855 343.368 4.48755C343.355 4.49146 343.385 4.48 343.476 4.48V0.48C342.625 0.48 341.734 0.69777 340.978 1.30225L343.477 4.42575ZM343.476 4.48H350.58V0.48H343.476V4.48ZM350.58 4.48C350.671 4.48 350.7 4.49146 350.688 4.48756C350.681 4.48551 350.666 4.48011 350.645 4.46918C350.623 4.45813 350.601 4.44358 350.578 4.42575L353.077 1.30225C352.322 0.697754 351.43 0.48 350.58 0.48V4.48ZM350.578 4.42575C350.584 4.43016 350.568 4.41778 350.547 4.38595C350.526 4.35344 350.515 4.32383 350.511 4.30911L354.392 3.33889C354.186 2.51428 353.726 1.82148 353.077 1.30225L350.578 4.42575ZM350.573 4.5089L360.478 31.6849L364.236 30.3151L354.331 3.1391L350.573 4.5089ZM362.357 33H367.563V29H362.357V33ZM369.563 31V3.68H365.563V31H369.563ZM369.563 3.68C369.563 3.71779 369.557 3.80795 369.511 3.92493C369.464 4.04603 369.392 4.15126 369.313 4.23031L366.485 1.40169C365.842 2.04413 365.563 2.86216 365.563 3.68H369.563ZM369.216 4.3211C369.187 4.34686 369.126 4.39163 369.032 4.428C368.937 4.46508 368.842 4.48 368.763 4.48V0.48C367.926 0.48 367.178 0.789692 366.582 1.3109L369.216 4.3211ZM368.763 4.48H375.099V0.48H368.763V4.48ZM375.099 4.48C375.061 4.48 374.971 4.47349 374.854 4.42802C374.733 4.38094 374.628 4.30927 374.549 4.23021L377.377 1.40179C376.735 0.759358 375.917 0.48 375.099 0.48V4.48ZM374.549 4.23021C374.47 4.15117 374.398 4.04596 374.351 3.92489C374.306 3.80793 374.299 3.71779 374.299 3.68H378.299C378.299 2.86217 378.02 2.0442 377.377 1.40179L374.549 4.23021ZM374.299 3.68V28.832H378.299V3.68H374.299ZM376.299 30.832H390.843V26.832H376.299V30.832ZM390.843 30.832C390.772 30.832 390.651 30.8179 390.511 30.7556C390.369 30.6926 390.266 30.6059 390.202 30.533L393.212 27.899C392.594 27.192 391.749 26.832 390.843 26.832V30.832ZM390.293 30.6302C390.214 30.5512 390.142 30.446 390.095 30.3249C390.05 30.2079 390.043 30.1178 390.043 30.08H394.043C394.043 29.2622 393.764 28.4442 393.121 27.8018L390.293 30.6302ZM390.043 30.08V31H394.043V30.08H390.043ZM392.043 33H404.577V29H392.043V33ZM406.283 29.9565C405.68 28.9693 405.369 27.9393 405.328 26.838L401.331 26.986C401.398 28.7911 401.919 30.4864 402.871 32.0435L406.283 29.9565ZM405.329 26.912C405.329 27.041 405.304 27.1904 405.24 27.3398C405.177 27.4869 405.095 27.5908 405.032 27.6542L402.203 24.8258C401.661 25.3676 401.329 26.0909 401.329 26.912H405.329ZM405.032 27.6542C404.991 27.6952 404.908 27.7639 404.779 27.8203C404.647 27.8783 404.509 27.904 404.385 27.904V23.904C403.512 23.904 402.761 24.2679 402.203 24.8258L405.032 27.6542ZM404.385 27.904H410.434V23.904H404.385V27.904ZM410.434 27.904C410.561 27.904 410.409 27.9326 410.183 27.7715L412.508 24.5165C411.834 24.0354 411.074 23.904 410.434 23.904V27.904ZM410.451 27.9329C410.431 27.9226 410.437 27.9227 410.468 27.9482C410.5 27.974 410.551 28.0203 410.619 28.0967L413.608 25.4393C413.238 25.023 412.787 24.6289 412.24 24.3551L410.451 27.9329ZM410.325 27.6625C410.94 28.8924 411.909 29.8489 413.118 30.5574L415.141 27.1066C414.494 26.7271 414.119 26.3076 413.902 25.8735L410.325 27.6625ZM413.118 30.5574C414.457 31.3421 416.078 31.648 417.826 31.648V27.648C416.501 27.648 415.658 27.4099 415.141 27.1066L413.118 30.5574ZM417.826 31.648C419.807 31.648 421.621 31.3444 423.03 30.499L420.973 27.069C420.462 27.3756 419.492 27.648 417.826 27.648V31.648ZM423.03 30.499C424.5 29.6171 425.441 28.2281 425.441 26.432H421.441C421.441 26.6199 421.423 26.7989 420.973 27.069L423.03 30.499ZM425.441 26.432C425.441 25.1742 424.953 24.0414 423.991 23.1989L421.356 26.2091C421.412 26.2574 421.421 26.2821 421.422 26.2843C421.424 26.2882 421.441 26.327 421.441 26.432H425.441ZM424.038 23.2419C423.251 22.5068 422.166 21.9948 421.002 21.6066L419.737 25.4014C420.685 25.7172 421.136 26.0052 421.309 26.1661L424.038 23.2419ZM421.002 21.6066C419.84 21.2193 418.186 20.8011 416.087 20.3488L415.244 24.2592C417.305 24.7029 418.787 25.0847 419.737 25.4014L421.002 21.6066ZM416.073 20.346C412.377 19.576 409.846 18.4949 408.275 17.2383L405.776 20.3617C408.045 22.1771 411.274 23.432 415.258 24.262L416.073 20.346ZM408.303 17.2614C406.954 16.1411 406.194 14.528 406.194 12.128H402.194C402.194 15.488 403.321 18.323 405.748 20.3386L408.303 17.2614ZM406.194 12.128C406.194 10.5738 406.618 9.23698 407.458 8.05204L404.193 5.73996C402.857 7.62702 402.194 9.77821 402.194 12.128H406.194ZM407.458 8.05204C408.299 6.86371 409.535 5.87741 411.269 5.13429L409.694 1.45771C407.396 2.44259 405.528 3.85629 404.193 5.73996L407.458 8.05204ZM411.269 5.13429C412.987 4.39816 415.061 4 417.538 4V0C414.638 0 412.008 0.465845 409.694 1.45771L411.269 5.13429ZM417.538 4C420.094 4 422.208 4.44079 423.937 5.25092L425.634 1.62908C423.267 0.519216 420.549 0 417.538 0V4ZM423.937 5.25092C425.751 6.10134 427.003 7.12062 427.816 8.25382L431.067 5.92218C429.768 4.11138 427.916 2.69866 425.634 1.62908L423.937 5.25092ZM427.846 8.29367C428.758 9.50138 429.13 10.5463 429.172 11.4508L433.167 11.2692C433.081 9.35766 432.301 7.55462 431.037 5.88233L427.846 8.29367ZM429.169 11.36C429.169 11.2785 429.184 11.155 429.241 11.0132C429.298 10.8691 429.382 10.7515 429.467 10.6658L432.296 13.4942C432.887 12.9026 433.169 12.1428 433.169 11.36H429.169ZM429.467 10.6658C429.553 10.5801 429.671 10.4967 429.815 10.439C429.956 10.3823 430.08 10.368 430.161 10.368V14.368C430.944 14.368 431.704 14.0858 432.296 13.4942L429.467 10.6658ZM430.161 10.368H423.826V14.368H430.161V10.368ZM423.826 10.368C423.743 10.368 423.7 10.361 423.69 10.3588C423.68 10.3569 423.709 10.3614 423.76 10.3872L421.971 13.9648C422.583 14.2708 423.232 14.368 423.826 14.368V10.368ZM423.858 10.4395C423.92 10.475 423.951 10.5053 423.956 10.5098C423.959 10.5135 423.941 10.4956 423.906 10.4425L420.577 12.6615C420.886 13.1236 421.304 13.5871 421.873 13.9125L423.858 10.4395ZM424.177 11.0472C423.813 9.65377 422.844 8.65104 421.677 7.95941L419.638 11.4006C420.199 11.733 420.286 11.9782 420.306 12.0568L424.177 11.0472ZM421.706 7.97669C420.482 7.22369 419.054 6.912 417.538 6.912V10.912C418.517 10.912 419.169 11.1123 419.609 11.3833L421.706 7.97669ZM417.538 6.912C415.907 6.912 414.349 7.19389 413.116 8.0159L415.335 11.3441C415.638 11.1421 416.288 10.912 417.538 10.912V6.912ZM413.116 8.0159C411.744 8.93058 411.073 10.3346 411.073 11.936H415.073C415.073 11.5534 415.171 11.4534 415.335 11.3441L413.116 8.0159ZM411.073 11.936C411.073 13.0584 411.437 14.121 412.232 14.9769L415.163 12.2551C415.126 12.215 415.073 12.1576 415.073 11.936H411.073ZM412.283 15.0302C413.006 15.7531 413.995 16.2921 415.067 16.721L416.552 13.007C415.704 12.6679 415.285 12.3749 415.112 12.2018L412.283 15.0302ZM415.141 16.7489C416.257 17.1449 417.766 17.5344 419.621 17.9251L420.446 14.0109C418.653 13.6336 417.346 13.2871 416.478 12.9791L415.141 16.7489ZM419.674 17.9354C422.562 18.4633 424.742 19.1117 426.283 19.8401L427.992 16.2239C426.013 15.2883 423.457 14.5607 420.393 14.0006L419.674 17.9354ZM426.322 19.8583C427.849 20.54 428.812 21.3689 429.384 22.2711L432.763 20.1289C431.671 18.4071 430.01 17.124 427.953 16.2057L426.322 19.8583ZM429.397 22.2899C429.966 23.1662 430.322 24.376 430.322 26.048H434.322C434.322 23.816 433.845 21.7938 432.75 20.1101L429.397 22.2899ZM430.322 26.048C430.322 27.5484 429.95 28.8169 429.241 29.9161L432.602 32.0839C433.76 30.2886 434.322 28.2558 434.322 26.048H430.322ZM430.922 33H444.19V29H430.922V33ZM446.19 31V10.016H442.19V31H446.19ZM444.19 8.016H435.646V12.016H444.19V8.016ZM435.646 8.016C435.724 8.016 435.819 8.03092 435.914 8.06799C436.008 8.10435 436.069 8.1491 436.098 8.17481L433.465 11.1852C434.06 11.7063 434.809 12.016 435.646 12.016V8.016ZM436.287 8.363C436.312 8.39241 436.357 8.45361 436.393 8.54711C436.431 8.64244 436.445 8.737 436.445 8.816H432.445C432.445 9.65264 432.755 10.4014 433.276 10.997L436.287 8.363ZM436.445 8.816V3.68H432.445V8.816H436.445ZM436.445 3.68C436.445 3.71779 436.439 3.80793 436.393 3.92489C436.346 4.04596 436.275 4.15117 436.196 4.23021L433.367 1.40179C432.725 2.0442 432.445 2.86217 432.445 3.68H436.445ZM436.098 4.32118C436.069 4.3469 436.008 4.39165 435.914 4.42801C435.819 4.46508 435.725 4.48 435.646 4.48V0.48C434.809 0.48 434.06 0.7897 433.465 1.31082L436.098 4.32118ZM435.646 4.48H461.47V0.48H435.646V4.48ZM461.47 4.48C461.432 4.48 461.342 4.47349 461.225 4.428C461.104 4.38092 460.998 4.30924 460.919 4.23021L463.748 1.40179C463.105 0.759393 462.287 0.48 461.47 0.48V4.48ZM460.919 4.23021C460.84 4.15117 460.769 4.04596 460.721 3.92489C460.676 3.80793 460.669 3.71779 460.669 3.68H464.669C464.669 2.86217 464.39 2.0442 463.748 1.40179L460.919 4.23021ZM460.669 3.68V8.816H464.669V3.68H460.669ZM460.669 8.816C460.669 8.77821 460.676 8.68807 460.721 8.57111C460.769 8.45005 460.84 8.34483 460.919 8.26579L463.748 11.0942C464.39 10.4518 464.669 9.63383 464.669 8.816H460.669ZM460.919 8.26579C460.998 8.18675 461.104 8.11508 461.225 8.06799C461.342 8.02251 461.432 8.016 461.47 8.016V12.016C462.287 12.016 463.105 11.7366 463.748 11.0942L460.919 8.26579ZM461.47 8.016H452.926V12.016H461.47V8.016ZM450.926 10.016V31H454.926V10.016H450.926ZM452.926 33H467.597V29H452.926V33ZM469.266 29.8974C468.203 28.2893 467.561 26.1711 467.459 23.4294L463.462 23.5786C463.584 26.8603 464.367 29.7394 465.928 32.1026L469.266 29.8974ZM467.459 23.4351C467.428 22.5426 467.412 21.1944 467.412 19.376H463.412C463.412 21.2056 463.428 22.6094 463.461 23.5729L467.459 23.4351ZM467.412 19.376C467.412 17.5251 467.428 16.1612 467.459 15.2689L463.461 15.1311C463.428 16.0948 463.412 17.5149 463.412 19.376H467.412ZM467.459 15.2757C467.603 11.4754 468.829 8.80026 470.945 6.96799L468.327 3.94401C465.195 6.65574 463.638 10.4766 463.462 15.1243L467.459 15.2757ZM470.947 6.96677C473.153 5.05274 476.182 4 480.244 4V0C475.474 0 471.431 1.25126 468.326 3.94523L470.947 6.96677ZM480.244 4C484.306 4 487.335 5.05274 489.542 6.96678L492.163 3.94522C489.057 1.25126 485.014 0 480.244 0V4ZM489.552 6.9758C491.692 8.80604 492.914 11.4721 493.029 15.2606L497.027 15.1394C496.886 10.4799 495.325 6.64996 492.152 3.9362L489.552 6.9758ZM493.029 15.2689C493.093 17.1198 493.124 18.4837 493.124 19.376H497.124C497.124 18.4123 497.091 16.9922 497.027 15.1311L493.029 15.2689ZM493.124 19.376C493.124 20.2358 493.093 21.5832 493.029 23.4351L497.027 23.5729C497.091 21.7128 497.124 20.3082 497.124 19.376H493.124ZM493.03 23.4294C492.906 26.7333 492.002 29.1373 490.499 30.8455L493.501 33.4879C495.765 30.9156 496.879 27.5444 497.027 23.5786L493.03 23.4294ZM490 32.1667V175H494V32.1667H490ZM492 173H2V177H492V173ZM4 175V31H0V175H4ZM2 33H269.36V29H2V33ZM355.595 30.2857L355.28 29.4617L351.544 30.8903L351.859 31.7143L355.595 30.2857ZM353.412 28.176H340.596V32.176H353.412V28.176ZM338.722 29.4778L338.415 30.3018L342.163 31.6982L342.47 30.8742L338.722 29.4778ZM340.289 33H353.727V29H340.289V33ZM288.183 30.0798L284.672 23.3038L281.12 25.1442L284.631 31.9202L288.183 30.0798ZM282.896 22.224H278V26.224H282.896V22.224ZM276 24.224V31H280V24.224H276ZM278 33H286.407V29H278V33ZM283.52 19.408C285.286 19.408 286.966 18.9859 288.231 17.8263L285.529 14.8777C285.258 15.1261 284.698 15.408 283.52 15.408V19.408ZM278 19.408H283.52V15.408H278V19.408ZM276 9.152V17.408H280V9.152H276ZM283.52 7.152H278V11.152H283.52V7.152ZM288.324 8.9202C287.077 7.61889 285.339 7.152 283.52 7.152V11.152C284.708 11.152 285.211 11.4531 285.436 11.6878L288.324 8.9202ZM290.032 13.328C290.032 11.6221 289.504 10.0485 288.264 8.86002L285.496 11.748C285.792 12.0315 286.032 12.4739 286.032 13.328H290.032ZM288.264 17.796C289.504 16.6075 290.032 15.0339 290.032 13.328H286.032C286.032 14.1821 285.792 14.6245 285.496 14.908L288.264 17.796ZM353.378 22.5995L348.914 9.92748L345.141 11.2565L349.605 23.9285L353.378 22.5995ZM342.564 25.264H351.492V21.264H342.564V25.264ZM345.141 9.92748L340.677 22.5995L344.45 23.9285L348.914 11.2565L345.141 9.92748ZM480.244 31.648C482.431 31.648 484.382 30.9759 485.856 29.4563L482.984 26.6717C482.41 27.2641 481.578 27.648 480.244 27.648V31.648ZM474.632 29.4563C476.106 30.9759 478.058 31.648 480.244 31.648V27.648C478.911 27.648 478.078 27.2641 477.504 26.6717L474.632 29.4563ZM472.39 23.3042C472.498 25.7396 473.136 27.9132 474.632 29.4563L477.504 26.6717C476.952 26.1028 476.471 25.0444 476.386 23.1278L472.39 23.3042ZM472.34 19.28C472.34 20.9836 472.356 22.3225 472.389 23.2849L476.387 23.1471C476.356 22.2535 476.34 20.9684 476.34 19.28H472.34ZM472.39 15.2727C472.356 16.2051 472.34 17.5456 472.34 19.28H476.34C476.34 17.5584 476.356 16.2749 476.387 15.4153L472.39 15.2727ZM474.632 9.10372C473.136 10.6468 472.498 12.8204 472.39 15.2558L476.386 15.4322C476.471 13.5156 476.952 12.4572 477.504 11.8883L474.632 9.10372ZM480.244 6.912C478.076 6.912 476.144 7.59141 474.654 9.08179L477.482 11.9102C478.104 11.2886 478.956 10.912 480.244 10.912V6.912ZM485.834 9.08179C484.344 7.59142 482.413 6.912 480.244 6.912V10.912C481.532 10.912 482.384 11.2886 483.006 11.9102L485.834 9.08179ZM488.099 15.2852C488.027 12.8305 487.387 10.6342 485.834 9.08179L483.006 11.9102C483.566 12.4698 484.045 13.5055 484.101 15.4028L488.099 15.2852ZM488.196 19.28C488.196 18.41 488.163 17.0678 488.099 15.2726L484.102 15.4154C484.165 17.2042 484.196 18.486 484.196 19.28H488.196ZM488.099 23.2849C488.163 21.429 488.196 20.0861 488.196 19.28H484.196C484.196 20.0099 484.165 21.291 484.101 23.1471L488.099 23.2849ZM485.834 29.4782C487.387 27.9258 488.027 25.7295 488.099 23.2748L484.101 23.1572C484.045 25.0545 483.566 26.0902 483.006 26.6498L485.834 29.4782ZM501.888 34.08C501.967 34.08 502.062 34.0949 502.157 34.132C502.251 34.1684 502.312 34.2131 502.341 34.2389L499.707 37.2491C500.303 37.7703 501.051 38.08 501.888 38.08V34.08ZM508.08 34.08H501.888V38.08H508.08V34.08ZM507.53 34.3298C507.609 34.2508 507.714 34.1791 507.835 34.132C507.952 34.0865 508.042 34.08 508.08 34.08V38.08C508.898 38.08 509.716 37.8006 510.358 37.1582L507.53 34.3298ZM507.328 34.88C507.328 34.809 507.342 34.6878 507.405 34.5477C507.468 34.4059 507.554 34.3026 507.627 34.2388L510.261 37.2492C510.968 36.6305 511.328 35.7858 511.328 34.88H507.328ZM507.328 24.224V34.88H511.328V24.224H507.328ZM514.224 22.224H509.328V26.224H514.224V22.224ZM521.472 33.8638L516 23.3038L512.448 25.1442L517.92 35.7042L521.472 33.8638ZM521.664 34.08C521.587 34.08 521.551 34.0711 521.545 34.0695C521.542 34.0685 521.556 34.0723 521.576 34.0857C521.596 34.0988 521.602 34.108 521.595 34.0992C521.586 34.0886 521.559 34.0515 521.524 33.9717L517.869 35.5963C518.184 36.3061 518.669 36.9604 519.376 37.4263C520.086 37.894 520.881 38.08 521.664 38.08V34.08ZM528.048 34.08H521.664V38.08H528.048V34.08ZM527.306 34.3777C527.369 34.3144 527.473 34.2328 527.62 34.1697C527.77 34.1057 527.919 34.08 528.048 34.08V38.08C528.869 38.08 529.593 37.748 530.134 37.2063L527.306 34.3777ZM527.056 35.072C527.056 34.8976 527.097 34.7337 527.16 34.5982C527.22 34.4701 527.285 34.3992 527.306 34.3778L530.134 37.2062C530.639 36.7015 531.056 35.9785 531.056 35.072H527.056ZM527.123 35.4385C527.122 35.4368 527.107 35.4054 527.091 35.3464C527.074 35.2865 527.056 35.1927 527.056 35.072H531.056C531.056 34.5139 530.89 34.0285 530.701 33.6495L527.123 35.4385ZM520.589 23.7091L527.165 35.5171L530.659 33.5709L524.083 21.7629L520.589 23.7091ZM525.045 18.0188C524.214 19.2534 523.06 20.2197 521.518 20.911L523.154 24.561C525.324 23.5883 527.082 22.1546 528.363 20.2532L525.045 18.0188ZM526.288 13.424C526.288 15.341 525.84 16.8382 525.045 18.0188L528.363 20.2532C529.68 18.2978 530.288 15.987 530.288 13.424H526.288ZM523.489 6.92379C525.306 8.3719 526.288 10.4407 526.288 13.424H530.288C530.288 9.43127 528.903 6.1241 525.983 3.79621L523.489 6.92379ZM514.944 4.48C518.85 4.48 521.605 5.37492 523.466 6.90508L526.006 3.81492C523.196 1.50508 519.422 0.48 514.944 0.48V4.48ZM501.888 4.48H514.944V0.48H501.888V4.48ZM502.341 4.3211C502.312 4.34686 502.251 4.39163 502.157 4.428C502.062 4.46508 501.967 4.48 501.888 4.48V0.48C501.051 0.48 500.303 0.789692 499.707 1.3109L502.341 4.3211ZM502.688 3.68C502.688 3.71779 502.682 3.80795 502.636 3.92493C502.589 4.04603 502.517 4.15126 502.438 4.23031L499.61 1.40169C498.967 2.04413 498.688 2.86216 498.688 3.68H502.688ZM502.688 34.88V3.68H498.688V34.88H502.688ZM502.529 34.4269C502.555 34.4563 502.6 34.5175 502.636 34.6111C502.673 34.7064 502.688 34.801 502.688 34.88H498.688C498.688 35.7167 498.998 36.4655 499.519 37.0611L502.529 34.4269ZM514.848 19.408C516.614 19.408 518.295 18.9859 519.56 17.8263L516.857 14.8777C516.586 15.1261 516.026 15.408 514.848 15.408V19.408ZM509.328 19.408H514.848V15.408H509.328V19.408ZM507.328 9.152V17.408H511.328V9.152H507.328ZM514.848 7.152H509.328V11.152H514.848V7.152ZM519.652 8.92017C518.405 7.6189 516.668 7.152 514.848 7.152V11.152C516.037 11.152 516.539 11.4531 516.764 11.6878L519.652 8.92017ZM521.36 13.328C521.36 11.6222 520.832 10.0486 519.592 8.86002L516.824 11.748C517.12 12.0314 517.36 12.4738 517.36 13.328H521.36ZM519.592 17.796C520.832 16.6074 521.36 15.0338 521.36 13.328H517.36C517.36 14.1822 517.12 14.6246 516.824 14.908L519.592 17.796ZM535.076 34.08C535.155 34.08 535.249 34.0949 535.345 34.132C535.438 34.1684 535.499 34.2131 535.529 34.2387L532.895 37.2493C533.49 37.7703 534.239 38.08 535.076 38.08V34.08ZM541.508 34.08H535.076V38.08H541.508V34.08ZM540.957 34.3298C541.036 34.2507 541.142 34.1791 541.263 34.132C541.38 34.0865 541.47 34.08 541.508 34.08V38.08C542.325 38.08 543.143 37.8006 543.786 37.1582L540.957 34.3298ZM540.756 34.88C540.756 34.809 540.77 34.6879 540.832 34.5478C540.895 34.4059 540.982 34.3027 541.055 34.2389L543.689 37.2491C544.396 36.6305 544.756 35.7858 544.756 34.88H540.756ZM540.756 3.68V34.88H544.756V3.68H540.756ZM541.055 4.32111C540.982 4.25734 540.895 4.15407 540.832 4.01223C540.77 3.87214 540.756 3.751 540.756 3.68H544.756C544.756 2.77424 544.396 1.92952 543.689 1.31089L541.055 4.32111ZM541.508 4.48C541.47 4.48 541.38 4.47349 541.263 4.42802C541.142 4.38094 541.036 4.30927 540.957 4.23021L543.786 1.40179C543.143 0.759358 542.325 0.48 541.508 0.48V4.48ZM535.076 4.48H541.508V0.48H535.076V4.48ZM535.529 4.32126C535.499 4.34691 535.438 4.39164 535.345 4.428C535.249 4.46508 535.155 4.48 535.076 4.48V0.48C534.239 0.48 533.49 0.789744 532.895 1.31074L535.529 4.32126ZM535.876 3.68C535.876 3.71779 535.869 3.80793 535.824 3.92489C535.777 4.04596 535.705 4.15117 535.626 4.23021L532.797 1.40179C532.155 2.0442 531.876 2.86217 531.876 3.68H535.876ZM535.876 34.88V3.68H531.876V34.88H535.876ZM535.717 34.427C535.742 34.4564 535.787 34.5176 535.824 34.6111C535.861 34.7064 535.876 34.801 535.876 34.88H531.876C531.876 35.7166 532.185 36.4654 532.706 37.061L535.717 34.427ZM550.638 34.08C550.717 34.08 550.812 34.0949 550.907 34.132C551.001 34.1684 551.062 34.2131 551.091 34.2387L548.457 37.2493C549.053 37.7703 549.801 38.08 550.638 38.08V34.08ZM573.438 34.08H550.638V38.08H573.438V34.08ZM572.888 34.3298C572.967 34.2507 573.072 34.1791 573.193 34.132C573.31 34.0865 573.4 34.08 573.438 34.08V38.08C574.256 38.08 575.074 37.8006 575.716 37.1582L572.888 34.3298ZM572.638 34.88C572.638 34.801 572.653 34.7064 572.69 34.6111C572.727 34.5176 572.771 34.4564 572.797 34.427L575.807 37.061C576.328 36.4654 576.638 35.7166 576.638 34.88H572.638ZM572.638 30.368V34.88H576.638V30.368H572.638ZM572.888 30.9182C572.809 30.8392 572.737 30.734 572.69 30.6129C572.645 30.4959 572.638 30.4058 572.638 30.368H576.638C576.638 29.5502 576.359 28.7322 575.716 28.0898L572.888 30.9182ZM573.438 31.168C573.4 31.168 573.31 31.1615 573.193 31.116C573.072 31.0689 572.967 30.9973 572.888 30.9182L575.716 28.0898C575.074 27.4474 574.256 27.168 573.438 27.168V31.168ZM557.742 31.168H573.438V27.168H557.742V31.168ZM555.742 22.496V29.168H559.742V22.496H555.742ZM571.998 20.496H557.742V24.496H571.998V20.496ZM571.448 20.7458C571.527 20.6667 571.632 20.5951 571.753 20.548C571.87 20.5025 571.96 20.496 571.998 20.496V24.496C572.816 24.496 573.634 24.2166 574.276 23.5742L571.448 20.7458ZM571.198 21.296C571.198 21.217 571.213 21.1224 571.25 21.0271C571.286 20.9336 571.331 20.8724 571.357 20.843L574.367 23.477C574.888 22.8814 575.198 22.1326 575.198 21.296H571.198ZM571.198 17.12V21.296H575.198V17.12H571.198ZM571.448 17.6702C571.369 17.5912 571.297 17.486 571.25 17.3649C571.205 17.2479 571.198 17.1578 571.198 17.12H575.198C575.198 16.3022 574.919 15.4842 574.276 14.8418L571.448 17.6702ZM571.998 17.872C571.927 17.872 571.806 17.8579 571.666 17.7956C571.524 17.7326 571.421 17.6459 571.357 17.573L574.367 14.939C573.749 14.232 572.904 13.872 571.998 13.872V17.872ZM557.742 17.872H571.998V13.872H557.742V17.872ZM555.742 9.392V15.872H559.742V9.392H555.742ZM573.054 7.392H557.742V11.392H573.054V7.392ZM572.504 7.64179C572.583 7.56272 572.688 7.49105 572.809 7.44398C572.926 7.39851 573.016 7.392 573.054 7.392V11.392C573.872 11.392 574.69 11.1126 575.332 10.4702L572.504 7.64179ZM572.254 8.192C572.254 8.113 572.269 8.01844 572.306 7.92311C572.343 7.82961 572.387 7.76841 572.413 7.739L575.423 10.373C575.944 9.7774 576.254 9.02864 576.254 8.192H572.254ZM572.254 3.68V8.192H576.254V3.68H572.254ZM572.504 4.23021C572.425 4.15117 572.353 4.04596 572.306 3.92489C572.261 3.80793 572.254 3.71779 572.254 3.68H576.254C576.254 2.86217 575.975 2.0442 575.332 1.40179L572.504 4.23021ZM573.054 4.48C573.016 4.48 572.926 4.47349 572.809 4.42802C572.688 4.38094 572.583 4.30927 572.504 4.23021L575.332 1.40179C574.69 0.759358 573.872 0.48 573.054 0.48V4.48ZM550.638 4.48H573.054V0.48H550.638V4.48ZM551.091 4.32126C551.062 4.34691 551.001 4.39164 550.907 4.428C550.812 4.46508 550.717 4.48 550.638 4.48V0.48C549.801 0.48 549.053 0.789744 548.457 1.31074L551.091 4.32126ZM551.438 3.68C551.438 3.71779 551.432 3.80793 551.386 3.92489C551.339 4.04596 551.267 4.15117 551.188 4.23021L548.36 1.40179C547.717 2.0442 547.438 2.86217 547.438 3.68H551.438ZM551.438 34.88V3.68H547.438V34.88H551.438ZM551.279 34.427C551.305 34.4564 551.35 34.5176 551.386 34.6111C551.423 34.7064 551.438 34.801 551.438 34.88H547.438C547.438 35.7166 547.748 36.4654 548.269 37.061L551.279 34.427ZM592.622 34.56C589.771 34.56 587.435 34.1388 585.56 33.3667L584.037 37.0654C586.514 38.0852 589.394 38.56 592.622 38.56V34.56ZM599.396 33.4439C597.49 34.1726 595.244 34.56 592.622 34.56V38.56C595.633 38.56 598.378 38.1154 600.825 37.1801L599.396 33.4439ZM603.666 30.4384C602.711 31.67 601.319 32.6913 599.382 33.4495L600.839 37.1745C603.317 36.2047 605.35 34.794 606.827 32.8897L603.666 30.4384ZM605.118 26.048C605.118 27.7734 604.627 29.2061 603.669 30.4339L606.823 32.8941C608.362 30.9219 609.118 28.6106 609.118 26.048H605.118ZM604.193 22.29C604.763 23.1662 605.118 24.376 605.118 26.048H609.118C609.118 23.816 608.642 21.7938 607.547 20.11L604.193 22.29ZM601.119 19.8583C602.646 20.54 603.609 21.3689 604.181 22.2711L607.559 20.1289C606.468 18.4071 604.807 17.124 602.75 16.2057L601.119 19.8583ZM594.471 17.9354C597.359 18.4633 599.539 19.1117 601.08 19.8401L602.789 16.2239C600.81 15.2883 598.254 14.5607 595.19 14.0006L594.471 17.9354ZM589.938 16.7489C591.054 17.1449 592.563 17.5344 594.418 17.9251L595.242 14.0109C593.45 13.6336 592.143 13.2871 591.275 12.9791L589.938 16.7489ZM587.08 15.0302C587.803 15.7531 588.791 16.2921 589.864 16.721L591.349 13.007C590.501 12.6679 590.082 12.3749 589.909 12.2018L587.08 15.0302ZM585.87 11.936C585.87 13.0584 586.234 14.121 587.029 14.9769L589.96 12.2551C589.923 12.215 589.87 12.1576 589.87 11.936H585.87ZM587.913 8.0159C586.541 8.93055 585.87 10.3346 585.87 11.936H589.87C589.87 11.5534 589.968 11.4534 590.132 11.3441L587.913 8.0159ZM592.334 6.912C590.704 6.912 589.146 7.19389 587.913 8.0159L590.132 11.3441C590.435 11.1421 591.085 10.912 592.334 10.912V6.912ZM596.503 7.9767C595.279 7.22369 593.851 6.912 592.334 6.912V10.912C593.314 10.912 593.966 11.1123 594.406 11.3833L596.503 7.9767ZM598.974 11.0471C598.61 9.65372 597.641 8.65102 596.474 7.95941L594.435 11.4006C594.996 11.733 595.083 11.9783 595.103 12.0569L598.974 11.0471ZM598.655 10.4395C598.717 10.475 598.748 10.5053 598.753 10.5098C598.756 10.5136 598.738 10.4958 598.703 10.4428L595.374 12.6612C595.682 13.1235 596.101 13.5871 596.67 13.9125L598.655 10.4395ZM598.622 10.368C598.54 10.368 598.497 10.361 598.487 10.3588C598.477 10.3569 598.505 10.3614 598.557 10.3871L596.768 13.9649C597.38 14.2708 598.029 14.368 598.622 14.368V10.368ZM604.958 10.368H598.622V14.368H604.958V10.368ZM604.264 10.6657C604.35 10.5801 604.468 10.4967 604.612 10.439C604.753 10.3823 604.877 10.368 604.958 10.368V14.368C605.741 14.368 606.501 14.0858 607.093 13.4943L604.264 10.6657ZM603.966 11.36C603.966 11.2785 603.981 11.155 604.037 11.0133C604.095 10.8692 604.178 10.7516 604.264 10.666L607.093 13.494C607.684 12.9025 607.966 12.1427 607.966 11.36H603.966ZM602.643 8.29363C603.555 9.50141 603.927 10.5464 603.968 11.4508L607.964 11.2692C607.877 9.35764 607.098 7.55459 605.834 5.88237L602.643 8.29363ZM598.734 5.25092C600.548 6.10133 601.8 7.12062 602.613 8.25384L605.863 5.92216C604.564 4.11138 602.713 2.69867 600.431 1.62909L598.734 5.25092ZM592.334 4C594.891 4 597.005 4.44079 598.734 5.25092L600.431 1.62908C598.064 0.519215 595.346 0 592.334 0V4ZM586.066 5.13429C587.784 4.39815 589.858 4 592.334 4V0C589.435 0 586.805 0.465846 584.491 1.45771L586.066 5.13429ZM582.254 8.05204C583.096 6.86371 584.332 5.87741 586.066 5.13429L584.491 1.45771C582.193 2.44259 580.325 3.85629 578.99 5.73996L582.254 8.05204ZM580.99 12.128C580.99 10.5738 581.415 9.237 582.254 8.05204L578.99 5.73996C577.654 7.62701 576.99 9.77819 576.99 12.128H580.99ZM583.1 17.2614C581.751 16.141 580.99 14.528 580.99 12.128H576.99C576.99 15.4881 578.118 18.323 580.545 20.3386L583.1 17.2614ZM590.87 20.346C587.174 19.576 584.643 18.4949 583.072 17.2383L580.573 20.3617C582.842 22.1771 586.071 23.432 590.055 24.262L590.87 20.346ZM595.799 21.6066C594.637 21.2193 592.983 20.8011 590.884 20.3488L590.041 24.2592C592.102 24.7029 593.584 25.0847 594.534 25.4014L595.799 21.6066ZM598.835 23.2418C598.047 22.5068 596.963 21.9948 595.799 21.6066L594.534 25.4014C595.481 25.7172 595.933 26.0052 596.106 26.1662L598.835 23.2418ZM600.238 26.432C600.238 25.1741 599.75 24.0414 598.787 23.1989L596.153 26.2091C596.208 26.2574 596.218 26.2821 596.219 26.2843C596.221 26.2882 596.238 26.3271 596.238 26.432H600.238ZM597.827 30.499C599.297 29.6171 600.238 28.2281 600.238 26.432H596.238C596.238 26.6199 596.22 26.7989 595.769 27.069L597.827 30.499ZM592.622 31.648C594.604 31.648 596.418 31.3444 597.827 30.499L595.769 27.069C595.258 27.3756 594.289 27.648 592.622 27.648V31.648ZM587.915 30.5574C589.254 31.3421 590.875 31.648 592.622 31.648V27.648C591.298 27.648 590.455 27.4099 589.938 27.1066L587.915 30.5574ZM585.122 27.6623C585.737 28.8924 586.706 29.8489 587.915 30.5574L589.938 27.1066C589.29 26.7271 588.916 26.3076 588.699 25.8737L585.122 27.6623ZM585.248 27.9328C585.227 27.9226 585.234 27.9226 585.265 27.9482C585.297 27.974 585.348 28.0204 585.416 28.0969L588.405 25.4392C588.035 25.023 587.584 24.6289 587.037 24.3552L585.248 27.9328ZM585.23 27.904C585.358 27.904 585.206 27.9326 584.98 27.7715L587.305 24.5165C586.631 24.0354 585.871 23.904 585.23 23.904V27.904ZM579.182 27.904H585.23V23.904H579.182V27.904ZM579.829 27.6542C579.788 27.6951 579.705 27.7639 579.576 27.8203C579.443 27.8783 579.306 27.904 579.182 27.904V23.904C578.308 23.904 577.558 24.2679 577 24.8258L579.829 27.6542ZM580.126 26.912C580.126 27.0408 580.101 27.1902 580.037 27.3397C579.974 27.4869 579.892 27.5908 579.828 27.6543L577 24.8257C576.458 25.3678 576.126 26.0912 576.126 26.912H580.126ZM581.463 30.5232C580.599 29.355 580.173 28.1394 580.125 26.838L576.128 26.986C576.208 29.1406 576.933 31.125 578.246 32.9008L581.463 30.5232ZM585.56 33.3666C583.615 32.5656 582.286 31.5808 581.433 30.4841L578.276 32.9399C579.663 34.7232 581.63 36.0744 584.037 37.0654L585.56 33.3666Z" fill="black" mask="url(#path-1-outside-1_1250_74)"/>
</svg>
